<svg xmlns="http://www.w3.org/2000/svg" viewBox="0 0 1600 900" fill="none" stroke-linecap="round" stroke-linejoin="round">
  <path d="M1272.8 640.0 L1273.4 641.2 L1273.9 642.4 L1274.0 643.6 L1274.0 644.9 L1273.7 646.1 L1273.3 647.3 L1272.6 648.4 L1271.7 649.5 L1270.7 650.6 L1269.5 651.6 L1268.3 652.5 L1266.9 653.3 L1265.6 654.1 L1264.1 654.9 L1262.7 655.6 L1261.2 656.2 L1259.8 656.9 L1258.3 657.5 L1256.9 658.0 L1255.5 658.6 L1254.1 659.1 L1252.8 659.7 L1251.4 660.2 L1250.0 660.7 L1248.6 661.1 L1247.2 661.6 L1245.7 661.9 L1244.3 662.3 L1242.8 662.6 L1241.3 662.8 L1239.8 663.0 L1238.2 663.1 L1236.7 663.1 L1235.2 663.1 L1233.7 663.0 L1232.2 662.9 L1230.7 662.7 L1229.3 662.5 L1227.9 662.2 L1226.5 662.0 L1225.1 661.8 L1223.7 661.5 L1222.4 661.3 L1221.0 661.1 L1219.6 660.9 L1218.2 660.7 L1216.8 660.6 L1215.3 660.5 L1213.8 660.3 L1212.2 660.2 L1210.6 660.0 L1209.0 659.8 L1207.4 659.6 L1205.7 659.3 L1204.1 658.9 L1202.5 658.4 L1201.0 657.9 L1199.6 657.2 L1198.3 656.5 L1197.1 655.7 L1196.1 654.8 L1195.2 653.8 L1194.5 652.8 L1194.0 651.7 L1193.7 650.6 L1193.5 649.5 L1193.4 648.3 L1193.6 647.2 L1193.8 646.1 L1194.1 645.0 L1194.4 643.9 L1194.8 642.9 L1195.2 641.9 L1195.5 640.9 L1195.9 640.0 L1196.1 639.1 L1196.3 638.1 L1196.5 637.2 L1196.5 636.3 L1196.6 635.3 L1196.5 634.4 L1196.4 633.4 L1196.4 632.3 L1196.3 631.2 L1196.3 630.1 L1196.3 629.0 L1196.4 627.9 L1196.6 626.7 L1197.0 625.6 L1197.4 624.5 L1198.1 623.4 L1198.8 622.3 L1199.7 621.4 L1200.8 620.4 L1202.0 619.6 L1203.2 618.8 L1204.6 618.1 L1206.1 617.5 L1207.7 616.9 L1209.3 616.5 L1210.9 616.1 L1212.6 615.7 L1214.3 615.5 L1216.0 615.2 L1217.6 615.0 L1219.3 614.9 L1221.0 614.8 L1222.6 614.7 L1224.3 614.6 L1225.9 614.6 L1227.6 614.6 L1229.2 614.6 L1230.8 614.7 L1232.4 614.8 L1234.0 615.0 L1235.6 615.3 L1237.1 615.6 L1238.6 616.0 L1240.0 616.5 L1241.4 617.0 L1242.7 617.7 L1243.9 618.3 L1245.0 619.1 L1246.0 619.9 L1247.0 620.7 L1247.8 621.6 L1248.6 622.4 L1249.3 623.3 L1250.0 624.1 L1250.6 625.0 L1251.3 625.8 L1251.9 626.5 L1252.6 627.2 L1253.4 627.9 L1254.2 628.5 L1255.1 629.1 L1256.1 629.6 L1257.2 630.2 L1258.5 630.7 L1259.8 631.3 L1261.2 631.9 L1262.6 632.6 L1264.1 633.2 L1265.6 634.0 L1267.0 634.8 L1268.4 635.7 L1269.7 636.7 L1270.9 637.7 L1272.0 638.8 L1272.8 640.0 Z" fill="none" stroke="#E6C77E" stroke-width="1.44" opacity="0.49"/>
  <path d="M1318.1 640.0 L1318.7 642.4 L1318.8 644.9 L1318.5 647.3 L1317.7 649.7 L1316.6 652.1 L1315.1 654.3 L1313.3 656.5 L1311.2 658.6 L1309.0 660.5 L1306.5 662.4 L1304.0 664.1 L1301.4 665.7 L1298.7 667.3 L1296.0 668.8 L1293.4 670.2 L1290.7 671.6 L1288.1 672.9 L1285.5 674.2 L1283.0 675.5 L1280.4 676.7 L1277.8 677.9 L1275.2 679.1 L1272.5 680.2 L1269.8 681.2 L1267.1 682.1 L1264.2 682.9 L1261.3 683.7 L1258.4 684.3 L1255.4 684.8 L1252.3 685.1 L1249.3 685.3 L1246.2 685.4 L1243.2 685.4 L1240.2 685.3 L1237.2 685.1 L1234.3 684.9 L1231.4 684.6 L1228.6 684.3 L1225.8 684.0 L1223.0 683.7 L1220.2 683.4 L1217.4 683.2 L1214.6 683.0 L1211.8 682.9 L1208.8 682.8 L1205.8 682.7 L1202.7 682.6 L1199.5 682.5 L1196.3 682.3 L1192.9 682.1 L1189.6 681.8 L1186.3 681.3 L1182.9 680.7 L1179.7 679.9 L1176.6 678.9 L1173.7 677.7 L1170.9 676.4 L1168.5 674.8 L1166.3 673.1 L1164.4 671.2 L1162.9 669.2 L1161.7 667.1 L1160.8 664.9 L1160.3 662.7 L1160.0 660.4 L1160.0 658.2 L1160.1 656.0 L1160.4 653.8 L1160.9 651.6 L1161.3 649.6 L1161.8 647.6 L1162.2 645.6 L1162.5 643.7 L1162.6 641.9 L1162.7 640.0 L1162.6 638.1 L1162.4 636.3 L1162.1 634.4 L1161.6 632.4 L1161.1 630.4 L1160.6 628.3 L1160.2 626.2 L1159.8 624.0 L1159.6 621.7 L1159.5 619.4 L1159.7 617.1 L1160.1 614.8 L1160.8 612.5 L1161.8 610.3 L1163.1 608.1 L1164.7 606.0 L1166.6 604.1 L1168.8 602.3 L1171.2 600.6 L1173.8 599.1 L1176.7 597.7 L1179.6 596.5 L1182.7 595.4 L1185.9 594.4 L1189.1 593.6 L1192.4 592.8 L1195.7 592.2 L1199.0 591.6 L1202.3 591.1 L1205.6 590.6 L1208.8 590.3 L1212.1 589.9 L1215.4 589.7 L1218.6 589.5 L1221.9 589.4 L1225.1 589.4 L1228.4 589.5 L1231.6 589.7 L1234.8 590.1 L1237.9 590.6 L1241.0 591.3 L1243.9 592.1 L1246.8 593.1 L1249.5 594.2 L1252.0 595.5 L1254.4 596.9 L1256.6 598.4 L1258.7 600.0 L1260.6 601.6 L1262.3 603.3 L1264.0 604.9 L1265.5 606.5 L1267.0 608.0 L1268.5 609.5 L1270.0 610.8 L1271.6 612.1 L1273.4 613.3 L1275.2 614.4 L1277.3 615.4 L1279.5 616.4 L1282.0 617.3 L1284.7 618.3 L1287.5 619.3 L1290.5 620.3 L1293.6 621.4 L1296.8 622.6 L1300.0 624.0 L1303.1 625.5 L1306.1 627.2 L1308.9 629.0 L1311.5 631.0 L1313.7 633.1 L1315.6 635.3 L1317.1 637.6 L1318.1 640.0 Z" fill="none" stroke="#E6C77E" stroke-width="1.38" opacity="0.46"/>
  <path d="M1363.4 640.0 L1363.3 643.7 L1362.5 647.3 L1361.1 650.9 L1359.2 654.3 L1356.9 657.7 L1354.2 660.9 L1351.1 664.0 L1347.9 666.9 L1344.5 669.7 L1340.9 672.4 L1337.4 675.0 L1333.8 677.4 L1330.2 679.8 L1326.6 682.1 L1323.0 684.3 L1319.5 686.5 L1316.0 688.7 L1312.4 690.8 L1308.8 692.8 L1305.2 694.8 L1301.4 696.6 L1297.6 698.4 L1293.6 700.0 L1289.5 701.5 L1285.3 702.8 L1281.0 704.0 L1276.6 704.9 L1272.1 705.7 L1267.5 706.2 L1263.0 706.6 L1258.4 706.8 L1253.9 706.9 L1249.4 706.8 L1245.0 706.7 L1240.7 706.5 L1236.4 706.3 L1232.1 706.1 L1227.9 706.0 L1223.7 705.9 L1219.5 705.8 L1215.2 705.9 L1210.8 706.0 L1206.4 706.1 L1201.8 706.3 L1197.1 706.4 L1192.3 706.5 L1187.3 706.6 L1182.3 706.5 L1177.2 706.2 L1172.2 705.7 L1167.1 705.0 L1162.2 704.0 L1157.4 702.7 L1152.9 701.1 L1148.7 699.2 L1144.8 697.0 L1141.4 694.6 L1138.4 691.9 L1135.9 688.9 L1133.8 685.8 L1132.2 682.6 L1131.1 679.3 L1130.3 675.9 L1129.9 672.6 L1129.8 669.3 L1129.8 666.0 L1130.0 662.8 L1130.2 659.8 L1130.4 656.8 L1130.5 653.9 L1130.4 651.0 L1130.2 648.3 L1129.7 645.5 L1129.1 642.8 L1128.2 640.0 L1127.2 637.2 L1126.0 634.3 L1124.8 631.3 L1123.5 628.2 L1122.3 625.0 L1121.3 621.7 L1120.5 618.3 L1120.0 614.9 L1119.8 611.4 L1120.0 607.9 L1120.7 604.4 L1121.9 601.0 L1123.5 597.7 L1125.6 594.5 L1128.1 591.4 L1131.1 588.6 L1134.5 585.9 L1138.2 583.4 L1142.2 581.2 L1146.4 579.1 L1150.8 577.2 L1155.4 575.5 L1160.0 574.0 L1164.8 572.6 L1169.5 571.3 L1174.3 570.1 L1179.1 569.1 L1183.9 568.1 L1188.7 567.2 L1193.6 566.4 L1198.4 565.8 L1203.3 565.2 L1208.1 564.8 L1213.0 564.5 L1217.9 564.4 L1222.8 564.6 L1227.6 564.9 L1232.4 565.5 L1237.1 566.3 L1241.6 567.4 L1246.0 568.7 L1250.3 570.3 L1254.3 572.1 L1258.1 574.0 L1261.6 576.1 L1265.0 578.3 L1268.1 580.6 L1270.9 582.9 L1273.7 585.2 L1276.3 587.4 L1278.8 589.5 L1281.4 591.5 L1284.0 593.3 L1286.7 595.0 L1289.6 596.6 L1292.7 598.0 L1296.1 599.3 L1299.8 600.5 L1303.8 601.6 L1308.1 602.8 L1312.6 604.0 L1317.4 605.3 L1322.4 606.7 L1327.4 608.3 L1332.4 610.1 L1337.4 612.1 L1342.1 614.4 L1346.6 616.9 L1350.7 619.7 L1354.3 622.7 L1357.4 625.9 L1359.9 629.2 L1361.7 632.7 L1362.9 636.3 L1363.4 640.0 Z" fill="none" stroke="#C6A75E" stroke-width="1.32" opacity="0.42"/>
  <path d="M1406.4 640.0 L1405.1 644.8 L1403.1 649.5 L1400.5 654.1 L1397.4 658.6 L1393.9 662.9 L1390.2 667.0 L1386.2 670.9 L1382.1 674.7 L1377.9 678.4 L1373.6 682.0 L1369.4 685.4 L1365.2 688.8 L1361.0 692.0 L1356.8 695.3 L1352.6 698.4 L1348.3 701.5 L1343.9 704.5 L1339.4 707.4 L1334.8 710.2 L1330.0 712.8 L1324.9 715.3 L1319.7 717.5 L1314.3 719.6 L1308.7 721.4 L1303.0 722.9 L1297.1 724.2 L1291.2 725.3 L1285.2 726.1 L1279.1 726.7 L1273.1 727.1 L1267.2 727.4 L1261.3 727.5 L1255.5 727.7 L1249.8 727.8 L1244.1 727.9 L1238.4 728.0 L1232.8 728.3 L1227.2 728.6 L1221.5 729.1 L1215.6 729.6 L1209.7 730.2 L1203.6 730.8 L1197.3 731.4 L1190.9 731.9 L1184.3 732.3 L1177.6 732.5 L1170.8 732.4 L1163.9 732.1 L1157.2 731.4 L1150.5 730.3 L1144.0 728.8 L1137.9 726.9 L1132.1 724.6 L1126.8 721.8 L1122.0 718.7 L1117.7 715.2 L1114.1 711.4 L1111.0 707.4 L1108.5 703.2 L1106.5 698.9 L1105.0 694.5 L1104.0 690.1 L1103.3 685.7 L1102.8 681.4 L1102.4 677.3 L1102.0 673.2 L1101.6 669.3 L1101.1 665.5 L1100.3 661.8 L1099.3 658.2 L1098.0 654.6 L1096.5 651.1 L1094.6 647.5 L1092.5 643.8 L1090.3 640.0 L1088.0 636.1 L1085.7 632.0 L1083.5 627.9 L1081.5 623.5 L1079.8 619.1 L1078.6 614.5 L1077.8 609.9 L1077.6 605.2 L1078.0 600.5 L1079.1 595.9 L1080.8 591.4 L1083.1 587.0 L1086.1 582.8 L1089.7 578.8 L1093.8 575.1 L1098.3 571.5 L1103.3 568.3 L1108.6 565.2 L1114.2 562.4 L1119.9 559.8 L1125.8 557.4 L1131.8 555.2 L1137.9 553.1 L1144.1 551.2 L1150.2 549.4 L1156.4 547.7 L1162.7 546.1 L1168.9 544.7 L1175.2 543.4 L1181.6 542.3 L1188.0 541.4 L1194.5 540.7 L1201.0 540.3 L1207.5 540.1 L1214.0 540.3 L1220.5 540.8 L1226.9 541.7 L1233.1 542.9 L1239.2 544.4 L1245.0 546.3 L1250.6 548.4 L1255.9 550.8 L1261.0 553.4 L1265.7 556.2 L1270.1 559.0 L1274.3 561.8 L1278.3 564.6 L1282.2 567.3 L1285.9 569.8 L1289.7 572.2 L1293.5 574.3 L1297.5 576.3 L1301.7 578.0 L1306.3 579.5 L1311.2 580.9 L1316.4 582.1 L1322.1 583.3 L1328.1 584.4 L1334.5 585.7 L1341.2 587.0 L1348.1 588.5 L1355.1 590.3 L1362.1 592.3 L1369.0 594.7 L1375.7 597.5 L1381.9 600.5 L1387.7 604.0 L1392.9 607.7 L1397.3 611.8 L1401.0 616.2 L1403.8 620.7 L1405.7 625.4 L1406.8 630.3 L1407.0 635.1 L1406.4 640.0 Z" fill="none" stroke="#C6A75E" stroke-width="1.25" opacity="0.39"/>
  <path d="M1445.8 640.0 L1443.2 645.9 L1440.1 651.6 L1436.5 657.1 L1432.5 662.5 L1428.3 667.6 L1423.9 672.7 L1419.4 677.5 L1414.9 682.2 L1410.4 686.9 L1405.9 691.4 L1401.3 695.8 L1396.8 700.1 L1392.1 704.4 L1387.4 708.6 L1382.5 712.7 L1377.4 716.6 L1372.0 720.4 L1366.4 724.1 L1360.6 727.5 L1354.4 730.6 L1347.9 733.5 L1341.2 736.1 L1334.2 738.4 L1327.1 740.3 L1319.8 742.0 L1312.4 743.4 L1305.0 744.5 L1297.6 745.5 L1290.2 746.2 L1283.0 746.9 L1275.8 747.5 L1268.6 748.1 L1261.6 748.7 L1254.6 749.4 L1247.7 750.2 L1240.7 751.1 L1233.6 752.2 L1226.4 753.3 L1219.0 754.5 L1211.5 755.7 L1203.7 756.9 L1195.7 758.0 L1187.5 759.0 L1179.1 759.6 L1170.6 760.0 L1162.0 759.9 L1153.5 759.4 L1145.1 758.3 L1136.9 756.8 L1129.1 754.6 L1121.7 752.0 L1114.8 748.7 L1108.5 745.0 L1102.9 740.8 L1097.9 736.2 L1093.6 731.3 L1090.0 726.2 L1087.1 720.9 L1084.7 715.6 L1082.7 710.2 L1081.1 704.9 L1079.8 699.7 L1078.6 694.6 L1077.4 689.7 L1076.1 685.0 L1074.6 680.4 L1072.8 675.9 L1070.7 671.6 L1068.2 667.2 L1065.4 662.9 L1062.3 658.6 L1058.8 654.2 L1055.2 649.6 L1051.6 644.9 L1047.9 640.0 L1044.4 634.9 L1041.2 629.6 L1038.4 624.1 L1036.1 618.5 L1034.5 612.7 L1033.6 606.9 L1033.5 601.1 L1034.3 595.3 L1035.8 589.6 L1038.2 584.0 L1041.4 578.6 L1045.3 573.4 L1049.9 568.4 L1055.1 563.8 L1060.8 559.4 L1066.9 555.2 L1073.4 551.3 L1080.1 547.7 L1087.1 544.3 L1094.2 541.0 L1101.4 538.0 L1108.6 535.1 L1116.0 532.4 L1123.4 529.8 L1130.9 527.4 L1138.5 525.2 L1146.2 523.1 L1153.9 521.3 L1161.8 519.8 L1169.8 518.5 L1177.9 517.6 L1186.0 517.0 L1194.2 516.9 L1202.4 517.2 L1210.4 517.9 L1218.4 519.1 L1226.2 520.8 L1233.7 522.8 L1241.0 525.2 L1248.0 527.9 L1254.6 530.9 L1260.8 534.0 L1266.8 537.2 L1272.4 540.4 L1277.8 543.5 L1283.0 546.5 L1288.1 549.3 L1293.2 551.9 L1298.4 554.2 L1303.8 556.1 L1309.5 557.8 L1315.5 559.3 L1322.0 560.5 L1328.9 561.6 L1336.3 562.5 L1344.2 563.5 L1352.5 564.5 L1361.2 565.7 L1370.2 567.1 L1379.2 568.9 L1388.3 571.0 L1397.2 573.6 L1405.8 576.6 L1414.0 580.1 L1421.5 584.1 L1428.3 588.5 L1434.3 593.3 L1439.3 598.6 L1443.2 604.1 L1446.2 609.9 L1448.0 615.8 L1448.8 621.9 L1448.7 628.0 L1447.6 634.0 L1445.8 640.0 Z" fill="none" stroke="#C6A75E" stroke-width="1.19" opacity="0.36"/>
  <path d="M1481.3 640.0 L1477.9 646.8 L1474.0 653.4 L1470.0 659.9 L1465.7 666.1 L1461.3 672.2 L1456.8 678.2 L1452.3 684.0 L1447.8 689.8 L1443.3 695.4 L1438.7 700.9 L1433.9 706.4 L1429.0 711.8 L1423.8 717.0 L1418.4 722.1 L1412.6 727.0 L1406.4 731.7 L1399.8 736.2 L1392.9 740.3 L1385.5 744.2 L1377.8 747.7 L1369.8 750.8 L1361.5 753.6 L1353.0 756.1 L1344.3 758.2 L1335.6 760.0 L1326.9 761.6 L1318.3 763.1 L1309.7 764.4 L1301.2 765.7 L1292.9 766.9 L1284.6 768.2 L1276.4 769.7 L1268.2 771.2 L1259.9 772.9 L1251.6 774.7 L1243.1 776.7 L1234.4 778.7 L1225.5 780.7 L1216.3 782.7 L1206.8 784.5 L1197.1 786.1 L1187.1 787.4 L1177.0 788.3 L1166.8 788.6 L1156.5 788.4 L1146.4 787.5 L1136.5 785.9 L1126.9 783.7 L1117.8 780.7 L1109.3 777.1 L1101.4 772.9 L1094.3 768.1 L1087.9 762.8 L1082.2 757.2 L1077.4 751.2 L1073.2 745.1 L1069.6 738.8 L1066.5 732.6 L1063.8 726.4 L1061.4 720.4 L1059.1 714.5 L1056.7 708.8 L1054.2 703.4 L1051.5 698.1 L1048.4 693.0 L1044.9 688.1 L1040.9 683.2 L1036.6 678.3 L1031.8 673.4 L1026.8 668.3 L1021.5 663.1 L1016.2 657.7 L1010.9 652.1 L1005.9 646.2 L1001.2 640.0 L997.0 633.6 L993.5 627.0 L990.8 620.2 L989.0 613.3 L988.1 606.3 L988.3 599.3 L989.5 592.4 L991.6 585.5 L994.8 578.9 L998.8 572.5 L1003.6 566.3 L1009.2 560.4 L1015.4 554.7 L1022.1 549.4 L1029.2 544.3 L1036.7 539.5 L1044.4 534.9 L1052.3 530.5 L1060.4 526.4 L1068.6 522.4 L1076.9 518.6 L1085.4 515.0 L1093.9 511.6 L1102.7 508.4 L1111.5 505.4 L1120.6 502.7 L1129.8 500.4 L1139.2 498.4 L1148.8 496.8 L1158.5 495.7 L1168.4 495.2 L1178.2 495.1 L1188.0 495.6 L1197.7 496.7 L1207.3 498.3 L1216.6 500.3 L1225.6 502.8 L1234.3 505.7 L1242.6 508.9 L1250.5 512.2 L1258.0 515.7 L1265.2 519.1 L1272.0 522.4 L1278.7 525.5 L1285.3 528.4 L1291.8 531.0 L1298.5 533.1 L1305.3 535.0 L1312.5 536.4 L1320.2 537.6 L1328.3 538.4 L1336.9 539.1 L1346.1 539.6 L1355.9 540.2 L1366.2 540.8 L1376.9 541.6 L1387.9 542.8 L1399.0 544.3 L1410.2 546.3 L1421.2 548.9 L1431.8 552.0 L1441.9 555.8 L1451.4 560.2 L1459.9 565.1 L1467.5 570.6 L1473.9 576.7 L1479.2 583.1 L1483.2 589.8 L1486.1 596.9 L1487.7 604.1 L1488.3 611.3 L1487.8 618.6 L1486.4 625.9 L1484.1 633.0 L1481.3 640.0 Z" fill="none" stroke="#C6A75E" stroke-width="1.13" opacity="0.33"/>
  <path d="M1514.0 640.0 L1510.4 647.7 L1506.5 655.2 L1502.6 662.6 L1498.6 669.8 L1494.5 676.9 L1490.4 683.9 L1486.1 690.7 L1481.8 697.5 L1477.2 704.2 L1472.4 710.8 L1467.3 717.3 L1461.7 723.6 L1455.7 729.7 L1449.2 735.5 L1442.2 741.1 L1434.6 746.4 L1426.5 751.3 L1418.0 755.8 L1409.0 759.9 L1399.8 763.7 L1390.2 767.0 L1380.5 770.0 L1370.6 772.7 L1360.8 775.2 L1351.0 777.5 L1341.2 779.6 L1331.6 781.7 L1322.2 783.8 L1312.8 786.0 L1303.5 788.3 L1294.2 790.8 L1284.9 793.5 L1275.4 796.3 L1265.8 799.2 L1256.0 802.2 L1245.8 805.2 L1235.4 808.1 L1224.5 810.8 L1213.4 813.3 L1201.9 815.3 L1190.2 816.8 L1178.3 817.6 L1166.4 817.8 L1154.6 817.2 L1142.9 815.8 L1131.6 813.5 L1120.8 810.4 L1110.6 806.5 L1101.0 801.8 L1092.2 796.5 L1084.3 790.7 L1077.1 784.3 L1070.7 777.6 L1065.1 770.7 L1060.1 763.7 L1055.7 756.8 L1051.7 749.8 L1047.9 743.1 L1044.2 736.6 L1040.4 730.3 L1036.5 724.3 L1032.2 718.6 L1027.5 713.0 L1022.4 707.6 L1016.7 702.3 L1010.5 697.0 L1004.0 691.6 L997.0 686.1 L989.9 680.4 L982.7 674.5 L975.5 668.2 L968.7 661.7 L962.3 654.7 L956.6 647.5 L951.6 640.0 L947.6 632.2 L944.6 624.3 L942.8 616.2 L942.1 608.1 L942.6 599.9 L944.3 591.9 L947.2 584.0 L951.0 576.3 L955.9 568.8 L961.5 561.6 L967.9 554.7 L974.9 548.0 L982.4 541.6 L990.3 535.5 L998.5 529.7 L1007.0 524.1 L1015.7 518.6 L1024.5 513.4 L1033.6 508.4 L1042.8 503.6 L1052.2 499.0 L1061.9 494.7 L1071.8 490.7 L1082.0 487.0 L1092.4 483.7 L1103.2 480.9 L1114.2 478.5 L1125.4 476.8 L1136.8 475.6 L1148.3 475.1 L1159.9 475.2 L1171.4 476.0 L1182.7 477.4 L1193.8 479.4 L1204.7 481.9 L1215.1 484.7 L1225.1 487.9 L1234.7 491.3 L1243.9 494.8 L1252.7 498.3 L1261.2 501.6 L1269.4 504.7 L1277.4 507.4 L1285.4 509.7 L1293.6 511.6 L1302.0 513.1 L1310.7 514.1 L1319.9 514.7 L1329.6 515.0 L1340.0 515.0 L1351.0 514.9 L1362.6 514.8 L1374.8 514.8 L1387.5 515.1 L1400.6 515.7 L1413.8 516.9 L1427.1 518.6 L1440.2 521.0 L1452.9 524.1 L1465.0 528.0 L1476.3 532.7 L1486.7 538.0 L1495.9 544.1 L1504.0 550.8 L1510.7 558.0 L1516.1 565.7 L1520.1 573.7 L1522.8 582.0 L1524.3 590.4 L1524.6 598.9 L1524.0 607.4 L1522.4 615.8 L1520.1 624.0 L1517.3 632.1 L1514.0 640.0 Z" fill="none" stroke="#C6A75E" stroke-width="1.07" opacity="0.29"/>
  <path d="M1545.7 640.0 L1542.6 648.6 L1539.4 657.0 L1536.1 665.4 L1532.6 673.6 L1529.1 681.7 L1525.3 689.7 L1521.3 697.7 L1516.9 705.5 L1512.0 713.2 L1506.6 720.8 L1500.7 728.1 L1494.1 735.2 L1486.8 742.0 L1478.8 748.5 L1470.3 754.5 L1461.1 760.2 L1451.4 765.4 L1441.3 770.2 L1430.9 774.6 L1420.2 778.6 L1409.5 782.3 L1398.6 785.7 L1387.9 789.0 L1377.2 792.1 L1366.6 795.2 L1356.2 798.4 L1345.9 801.6 L1335.8 805.0 L1325.6 808.6 L1315.4 812.4 L1305.1 816.3 L1294.5 820.4 L1283.7 824.6 L1272.5 828.7 L1260.9 832.7 L1248.8 836.4 L1236.4 839.8 L1223.5 842.7 L1210.3 844.9 L1196.9 846.4 L1183.4 847.1 L1169.8 846.9 L1156.5 845.7 L1143.4 843.5 L1130.8 840.3 L1118.8 836.2 L1107.5 831.2 L1096.9 825.5 L1087.2 819.2 L1078.4 812.3 L1070.4 805.0 L1063.2 797.5 L1056.6 789.9 L1050.6 782.3 L1045.0 774.8 L1039.6 767.5 L1034.3 760.5 L1028.9 753.8 L1023.3 747.5 L1017.3 741.4 L1010.8 735.6 L1003.7 729.9 L996.1 724.4 L987.9 718.8 L979.3 713.2 L970.3 707.5 L961.0 701.4 L951.7 695.1 L942.6 688.4 L933.7 681.3 L925.5 673.8 L917.9 665.9 L911.3 657.6 L905.7 648.9 L901.4 640.0 L898.3 630.9 L896.6 621.6 L896.3 612.3 L897.3 603.1 L899.5 593.9 L903.0 584.9 L907.5 576.1 L912.9 567.6 L919.2 559.3 L926.2 551.3 L933.8 543.5 L941.8 536.1 L950.2 528.8 L958.9 521.8 L967.9 515.1 L977.1 508.5 L986.6 502.2 L996.3 496.1 L1006.4 490.2 L1016.8 484.6 L1027.5 479.4 L1038.6 474.6 L1050.2 470.3 L1062.1 466.4 L1074.4 463.2 L1087.1 460.6 L1100.0 458.8 L1113.2 457.7 L1126.4 457.3 L1139.7 457.6 L1152.8 458.7 L1165.8 460.4 L1178.4 462.7 L1190.7 465.4 L1202.5 468.5 L1213.9 471.8 L1224.7 475.1 L1235.2 478.4 L1245.2 481.5 L1254.9 484.3 L1264.5 486.7 L1274.0 488.6 L1283.6 490.0 L1293.5 490.8 L1303.7 491.1 L1314.5 491.0 L1325.8 490.5 L1337.8 489.7 L1350.6 488.7 L1364.0 487.8 L1378.1 486.9 L1392.7 486.5 L1407.7 486.4 L1423.0 487.0 L1438.3 488.2 L1453.4 490.3 L1468.2 493.3 L1482.3 497.1 L1495.6 501.9 L1507.9 507.6 L1518.9 514.1 L1528.7 521.3 L1537.0 529.3 L1543.9 537.8 L1549.3 546.7 L1553.3 556.0 L1556.0 565.5 L1557.4 575.1 L1557.8 584.8 L1557.2 594.4 L1555.9 603.8 L1553.9 613.2 L1551.5 622.3 L1548.7 631.2 L1545.7 640.0 Z" fill="none" stroke="#C6A75E" stroke-width="1.01" opacity="0.26"/>
  <path d="M1578.5 640.0 L1576.3 649.5 L1573.9 658.9 L1571.4 668.3 L1568.5 677.6 L1565.3 686.8 L1561.6 695.9 L1557.3 704.8 L1552.4 713.6 L1546.7 722.3 L1540.2 730.6 L1532.9 738.6 L1524.8 746.3 L1516.0 753.6 L1506.4 760.5 L1496.2 766.9 L1485.5 772.9 L1474.4 778.4 L1463.1 783.6 L1451.5 788.4 L1440.0 793.0 L1428.4 797.4 L1417.0 801.6 L1405.8 805.9 L1394.7 810.2 L1383.8 814.7 L1372.9 819.3 L1362.1 824.2 L1351.3 829.2 L1340.2 834.5 L1329.0 839.8 L1317.4 845.2 L1305.3 850.6 L1292.8 855.8 L1279.7 860.7 L1266.1 865.2 L1252.0 869.0 L1237.4 872.1 L1222.5 874.4 L1207.4 875.6 L1192.2 875.9 L1177.1 875.0 L1162.3 873.0 L1147.8 869.8 L1134.0 865.7 L1120.8 860.5 L1108.4 854.5 L1096.9 847.7 L1086.2 840.4 L1076.4 832.7 L1067.4 824.7 L1059.1 816.7 L1051.3 808.6 L1044.0 800.8 L1036.9 793.2 L1029.8 785.9 L1022.5 779.0 L1015.0 772.5 L1007.0 766.3 L998.5 760.4 L989.4 754.7 L979.6 749.1 L969.3 743.6 L958.4 737.9 L947.2 732.1 L935.7 726.0 L924.1 719.4 L912.8 712.5 L901.8 705.0 L891.5 697.0 L881.9 688.5 L873.5 679.6 L866.2 670.1 L860.3 660.4 L855.8 650.3 L852.8 640.0 L851.4 629.6 L851.4 619.1 L852.8 608.7 L855.5 598.4 L859.4 588.3 L864.3 578.4 L870.2 568.7 L876.8 559.3 L884.1 550.2 L891.9 541.3 L900.2 532.6 L908.8 524.2 L917.7 515.9 L927.0 508.0 L936.7 500.2 L946.7 492.7 L957.1 485.5 L967.9 478.6 L979.3 472.0 L991.1 466.0 L1003.6 460.4 L1016.6 455.5 L1030.1 451.3 L1044.1 447.8 L1058.5 445.1 L1073.2 443.2 L1088.1 442.2 L1103.1 442.0 L1118.1 442.6 L1132.8 443.8 L1147.3 445.8 L1161.4 448.2 L1175.0 450.9 L1188.1 453.9 L1200.7 456.9 L1212.7 459.9 L1224.3 462.6 L1235.6 464.9 L1246.6 466.7 L1257.6 467.9 L1268.6 468.6 L1279.9 468.6 L1291.5 468.0 L1303.7 466.9 L1316.5 465.3 L1330.1 463.4 L1344.4 461.4 L1359.5 459.4 L1375.4 457.6 L1391.8 456.1 L1408.7 455.2 L1425.9 455.1 L1443.2 455.7 L1460.4 457.3 L1477.2 459.9 L1493.3 463.6 L1508.6 468.4 L1522.8 474.2 L1535.7 481.0 L1547.3 488.8 L1557.4 497.3 L1565.9 506.5 L1572.9 516.3 L1578.4 526.5 L1582.6 537.0 L1585.4 547.7 L1587.1 558.4 L1587.8 569.1 L1587.7 579.7 L1587.0 590.2 L1585.8 600.5 L1584.3 610.6 L1582.5 620.6 L1580.5 630.4 L1578.5 640.0 Z" fill="none" stroke="#C6A75E" stroke-width="0.95" opacity="0.23"/>
  <path d="M1613.4 640.0 L1612.1 650.5 L1610.5 661.0 L1608.4 671.4 L1605.7 681.7 L1602.3 691.9 L1598.1 702.0 L1592.9 711.9 L1586.9 721.5 L1579.8 730.9 L1571.8 739.8 L1562.9 748.4 L1553.2 756.5 L1542.7 764.2 L1531.6 771.5 L1520.1 778.3 L1508.3 784.7 L1496.3 790.8 L1484.2 796.6 L1472.2 802.3 L1460.3 807.8 L1448.7 813.4 L1437.2 819.0 L1425.8 824.8 L1414.6 830.8 L1403.4 837.1 L1392.2 843.5 L1380.8 850.2 L1369.0 856.9 L1356.8 863.7 L1344.2 870.5 L1330.9 877.0 L1316.9 883.1 L1302.3 888.8 L1287.1 893.7 L1271.3 897.8 L1255.0 900.8 L1238.4 902.8 L1221.6 903.6 L1204.8 903.1 L1188.1 901.4 L1171.8 898.4 L1156.1 894.2 L1141.0 889.0 L1126.6 882.8 L1113.2 875.9 L1100.6 868.3 L1088.8 860.3 L1077.9 852.0 L1067.7 843.7 L1058.0 835.4 L1048.8 827.3 L1039.7 819.6 L1030.6 812.3 L1021.4 805.4 L1011.9 798.9 L1001.8 792.9 L991.1 787.1 L979.8 781.7 L967.8 776.3 L955.2 771.0 L942.0 765.5 L928.4 759.8 L914.5 753.8 L900.6 747.3 L887.0 740.2 L873.7 732.5 L861.2 724.3 L849.5 715.4 L839.1 705.8 L829.9 695.8 L822.2 685.2 L816.1 674.3 L811.7 663.0 L808.8 651.6 L807.6 640.0 L807.9 628.4 L809.5 616.8 L812.5 605.4 L816.6 594.1 L821.7 583.1 L827.7 572.2 L834.3 561.6 L841.5 551.3 L849.3 541.1 L857.5 531.2 L866.1 521.5 L875.1 512.0 L884.6 502.8 L894.5 493.8 L905.0 485.1 L916.1 476.8 L927.8 468.9 L940.2 461.5 L953.4 454.7 L967.2 448.6 L981.8 443.2 L997.0 438.6 L1012.8 435.0 L1029.0 432.2 L1045.5 430.4 L1062.2 429.5 L1078.9 429.4 L1095.5 430.1 L1111.8 431.5 L1127.7 433.4 L1143.0 435.6 L1157.8 438.1 L1172.0 440.6 L1185.6 443.0 L1198.8 445.0 L1211.5 446.6 L1223.9 447.7 L1236.1 448.0 L1248.4 447.7 L1261.0 446.7 L1273.9 445.0 L1287.4 442.7 L1301.6 439.9 L1316.5 436.7 L1332.3 433.5 L1348.9 430.2 L1366.4 427.2 L1384.5 424.6 L1403.2 422.7 L1422.2 421.6 L1441.4 421.5 L1460.5 422.4 L1479.2 424.6 L1497.4 428.0 L1514.6 432.6 L1530.8 438.5 L1545.7 445.5 L1559.2 453.6 L1571.1 462.6 L1581.5 472.5 L1590.3 483.0 L1597.5 494.0 L1603.3 505.4 L1607.8 517.0 L1611.1 528.7 L1613.5 540.4 L1615.0 552.1 L1615.9 563.6 L1616.2 574.9 L1616.3 586.1 L1616.0 597.2 L1615.6 608.0 L1615.0 618.8 L1614.3 629.4 L1613.4 640.0 Z" fill="none" stroke="#C6A75E" stroke-width="0.88" opacity="0.20"/>
  <path d="M1650.5 640.0 L1649.9 651.5 L1648.4 663.0 L1646.1 674.5 L1642.9 685.8 L1638.6 697.0 L1633.1 707.9 L1626.6 718.5 L1618.9 728.8 L1610.2 738.7 L1600.5 748.2 L1590.1 757.3 L1578.9 765.8 L1567.2 774.0 L1555.2 781.7 L1543.0 789.2 L1530.8 796.4 L1518.6 803.4 L1506.6 810.4 L1494.7 817.3 L1483.1 824.4 L1471.7 831.7 L1460.4 839.2 L1449.2 846.9 L1437.8 854.8 L1426.3 863.0 L1414.3 871.3 L1401.9 879.6 L1388.8 887.8 L1375.0 895.7 L1360.4 903.2 L1344.9 910.0 L1328.7 916.1 L1311.8 921.2 L1294.2 925.2 L1276.1 928.0 L1257.8 929.4 L1239.2 929.4 L1220.8 928.1 L1202.6 925.4 L1184.9 921.4 L1167.8 916.2 L1151.5 910.0 L1136.0 903.0 L1121.3 895.3 L1107.6 887.2 L1094.6 878.8 L1082.4 870.4 L1070.7 862.1 L1059.4 854.1 L1048.3 846.5 L1037.2 839.3 L1025.9 832.7 L1014.2 826.5 L1002.0 820.8 L989.1 815.5 L975.5 810.5 L961.2 805.6 L946.2 800.7 L930.6 795.7 L914.5 790.4 L898.3 784.6 L881.9 778.3 L865.8 771.3 L850.2 763.7 L835.4 755.3 L821.6 746.1 L808.9 736.2 L797.8 725.6 L788.2 714.4 L780.2 702.7 L774.0 690.6 L769.6 678.2 L766.8 665.5 L765.7 652.8 L766.1 640.0 L767.8 627.3 L770.7 614.7 L774.7 602.3 L779.6 590.0 L785.2 578.0 L791.5 566.1 L798.4 554.5 L805.8 543.1 L813.7 531.9 L822.1 520.9 L831.1 510.1 L840.6 499.6 L850.9 489.4 L862.0 479.6 L873.8 470.2 L886.6 461.4 L900.2 453.3 L914.8 445.9 L930.3 439.2 L946.6 433.5 L963.6 428.8 L981.3 425.0 L999.3 422.3 L1017.6 420.5 L1036.0 419.6 L1054.3 419.5 L1072.3 420.2 L1089.9 421.4 L1107.0 423.0 L1123.4 424.7 L1139.1 426.5 L1154.2 428.1 L1168.7 429.3 L1182.7 430.0 L1196.4 430.0 L1209.8 429.3 L1223.2 427.8 L1236.8 425.5 L1250.9 422.5 L1265.4 418.8 L1280.7 414.6 L1296.9 410.0 L1313.9 405.3 L1331.9 400.6 L1350.7 396.2 L1370.4 392.4 L1390.7 389.3 L1411.4 387.1 L1432.4 386.1 L1453.3 386.3 L1473.9 387.8 L1494.0 390.8 L1513.2 395.2 L1531.4 401.0 L1548.3 408.1 L1563.8 416.4 L1577.7 425.8 L1590.0 436.1 L1600.8 447.2 L1610.0 458.9 L1617.7 471.0 L1624.1 483.4 L1629.3 496.0 L1633.6 508.6 L1637.0 521.1 L1639.8 533.6 L1642.1 545.9 L1644.0 558.0 L1645.7 570.0 L1647.1 581.8 L1648.4 593.6 L1649.4 605.2 L1650.2 616.9 L1650.6 628.4 L1650.5 640.0 Z" fill="none" stroke="#C6A75E" stroke-width="0.82" opacity="0.16"/>
  <path d="M1688.9 640.0 L1688.0 652.6 L1685.9 665.1 L1682.7 677.5 L1678.2 689.7 L1672.3 701.7 L1665.3 713.3 L1657.1 724.6 L1647.8 735.4 L1637.5 745.9 L1626.6 755.8 L1615.1 765.4 L1603.2 774.6 L1591.1 783.5 L1578.9 792.1 L1566.9 800.6 L1555.1 809.0 L1543.5 817.5 L1532.1 826.1 L1520.9 834.9 L1509.9 843.9 L1498.9 853.2 L1487.8 862.8 L1476.4 872.5 L1464.5 882.4 L1452.0 892.3 L1438.8 902.0 L1424.7 911.4 L1409.6 920.2 L1393.5 928.4 L1376.5 935.7 L1358.5 941.9 L1339.7 946.9 L1320.3 950.5 L1300.4 952.7 L1280.2 953.4 L1260.0 952.5 L1239.9 950.2 L1220.2 946.5 L1201.1 941.5 L1182.7 935.5 L1165.1 928.5 L1148.3 920.9 L1132.4 912.9 L1117.4 904.6 L1103.0 896.4 L1089.2 888.3 L1075.8 880.6 L1062.6 873.3 L1049.4 866.6 L1036.0 860.4 L1022.1 854.9 L1007.7 849.8 L992.6 845.2 L976.7 840.8 L960.1 836.7 L942.7 832.5 L924.7 828.1 L906.2 823.3 L887.5 818.1 L868.7 812.2 L850.2 805.5 L832.2 798.1 L815.0 789.7 L798.8 780.4 L783.9 770.3 L770.6 759.3 L758.9 747.6 L748.9 735.3 L740.8 722.4 L734.5 709.1 L730.0 695.5 L727.2 681.7 L725.9 667.8 L726.1 653.9 L727.5 640.0 L730.0 626.3 L733.5 612.6 L737.7 599.2 L742.7 585.9 L748.3 572.8 L754.6 559.9 L761.4 547.2 L768.9 534.7 L777.0 522.3 L785.9 510.3 L795.7 498.6 L806.5 487.3 L818.2 476.4 L831.1 466.1 L845.1 456.5 L860.2 447.7 L876.4 439.8 L893.6 432.8 L911.8 426.8 L930.7 421.9 L950.2 418.1 L970.0 415.3 L990.0 413.4 L1009.9 412.5 L1029.5 412.2 L1048.7 412.5 L1067.3 413.2 L1085.2 414.1 L1102.4 414.9 L1118.8 415.5 L1134.5 415.6 L1149.6 415.2 L1164.3 414.0 L1178.7 412.0 L1193.0 409.2 L1207.5 405.4 L1222.4 400.9 L1237.8 395.6 L1254.0 389.8 L1271.1 383.6 L1289.1 377.3 L1308.2 371.1 L1328.2 365.2 L1349.2 360.0 L1370.9 355.6 L1393.2 352.2 L1415.7 350.1 L1438.4 349.5 L1460.9 350.3 L1482.8 352.7 L1504.0 356.8 L1524.2 362.3 L1543.1 369.4 L1560.7 377.8 L1576.7 387.4 L1591.1 398.1 L1604.0 409.6 L1615.3 421.8 L1625.2 434.5 L1633.8 447.5 L1641.2 460.8 L1647.6 474.1 L1653.2 487.4 L1658.2 500.6 L1662.7 513.6 L1666.9 526.5 L1670.7 539.3 L1674.4 552.0 L1677.8 564.6 L1680.9 577.1 L1683.7 589.7 L1686.0 602.2 L1687.7 614.8 L1688.7 627.4 L1688.9 640.0 Z" fill="none" stroke="#9C7C3C" stroke-width="0.76" opacity="0.13"/>
  <path d="M1726.4 640.0 L1724.4 653.6 L1721.1 667.1 L1716.3 680.3 L1710.1 693.3 L1702.6 705.9 L1694.0 718.1 L1684.3 730.0 L1673.9 741.4 L1662.8 752.4 L1651.4 763.1 L1639.8 773.4 L1628.1 783.6 L1616.6 793.6 L1605.3 803.6 L1594.2 813.6 L1583.5 823.8 L1572.9 834.2 L1562.5 844.8 L1552.1 855.8 L1541.5 867.0 L1530.6 878.3 L1519.1 889.8 L1506.8 901.3 L1493.7 912.6 L1479.5 923.5 L1464.2 933.8 L1447.6 943.4 L1429.9 951.9 L1411.0 959.3 L1391.2 965.4 L1370.4 970.0 L1349.0 973.0 L1327.2 974.3 L1305.2 974.1 L1283.2 972.3 L1261.6 969.0 L1240.4 964.4 L1219.8 958.7 L1200.1 952.0 L1181.2 944.7 L1163.2 937.0 L1145.9 929.1 L1129.5 921.2 L1113.6 913.6 L1098.1 906.4 L1082.8 899.7 L1067.5 893.7 L1051.9 888.3 L1035.9 883.6 L1019.3 879.4 L1002.0 875.7 L983.9 872.3 L964.9 869.1 L945.2 865.8 L924.8 862.3 L904.0 858.4 L882.8 853.9 L861.6 848.6 L840.6 842.4 L820.2 835.3 L800.6 827.2 L782.0 818.0 L764.8 807.8 L749.2 796.6 L735.3 784.5 L723.2 771.6 L712.9 758.1 L704.5 744.1 L698.0 729.6 L693.2 714.8 L690.0 699.9 L688.3 684.9 L687.8 669.9 L688.5 654.9 L690.2 640.0 L692.7 625.2 L696.0 610.6 L700.0 596.1 L704.8 581.7 L710.2 567.5 L716.3 553.5 L723.4 539.7 L731.3 526.1 L740.3 512.8 L750.4 499.9 L761.8 487.6 L774.6 475.8 L788.7 464.7 L804.1 454.4 L820.9 445.0 L838.9 436.7 L858.1 429.4 L878.1 423.2 L898.8 418.2 L920.0 414.2 L941.5 411.2 L962.9 409.1 L984.0 407.8 L1004.6 407.0 L1024.6 406.6 L1043.8 406.4 L1062.2 406.1 L1079.7 405.5 L1096.4 404.4 L1112.4 402.7 L1127.9 400.1 L1143.0 396.6 L1157.9 392.2 L1173.0 386.9 L1188.4 380.6 L1204.5 373.7 L1221.3 366.1 L1239.0 358.2 L1257.8 350.1 L1277.7 342.2 L1298.7 334.7 L1320.7 328.0 L1343.7 322.1 L1367.3 317.5 L1391.3 314.3 L1415.6 312.6 L1439.8 312.6 L1463.6 314.4 L1486.7 317.9 L1508.8 323.2 L1529.9 330.0 L1549.5 338.4 L1567.8 348.1 L1584.5 358.9 L1599.6 370.7 L1613.2 383.3 L1625.5 396.4 L1636.4 409.9 L1646.2 423.6 L1655.1 437.4 L1663.2 451.2 L1670.6 465.0 L1677.6 478.6 L1684.2 492.1 L1690.6 505.5 L1696.6 518.8 L1702.5 532.1 L1707.9 545.3 L1713.0 558.6 L1717.5 572.0 L1721.3 585.5 L1724.3 599.0 L1726.2 612.7 L1726.9 626.3 L1726.4 640.0 Z" fill="none" stroke="#9C7C3C" stroke-width="0.70" opacity="0.10"/>
  <path d="M1462.7 800.0 L1462.3 801.1 L1461.8 802.1 L1461.3 803.1 L1460.8 804.1 L1460.3 805.0 L1459.8 806.0 L1459.3 806.9 L1458.7 807.8 L1458.2 808.7 L1457.6 809.6 L1457.0 810.5 L1456.4 811.4 L1455.7 812.2 L1455.0 813.0 L1454.2 813.8 L1453.4 814.5 L1452.5 815.2 L1451.5 815.8 L1450.5 816.4 L1449.4 816.9 L1448.4 817.4 L1447.3 817.8 L1446.1 818.2 L1445.0 818.5 L1443.9 818.8 L1442.7 819.1 L1441.6 819.3 L1440.5 819.6 L1439.4 819.8 L1438.4 820.1 L1437.3 820.4 L1436.2 820.7 L1435.1 821.1 L1434.0 821.4 L1432.9 821.8 L1431.8 822.2 L1430.6 822.5 L1429.4 822.9 L1428.1 823.2 L1426.8 823.5 L1425.5 823.8 L1424.2 823.9 L1422.8 824.0 L1421.5 823.9 L1420.1 823.8 L1418.8 823.6 L1417.5 823.2 L1416.3 822.7 L1415.2 822.1 L1414.2 821.5 L1413.2 820.7 L1412.4 819.9 L1411.6 819.0 L1410.9 818.0 L1410.3 817.1 L1409.8 816.1 L1409.4 815.2 L1409.0 814.2 L1408.6 813.3 L1408.2 812.4 L1407.8 811.6 L1407.4 810.7 L1406.9 809.9 L1406.4 809.2 L1405.8 808.4 L1405.2 807.7 L1404.5 806.9 L1403.8 806.2 L1403.0 805.4 L1402.2 804.6 L1401.5 803.8 L1400.7 802.9 L1400.0 802.0 L1399.3 801.0 L1398.7 800.0 L1398.2 799.0 L1397.8 797.9 L1397.6 796.8 L1397.4 795.7 L1397.4 794.6 L1397.6 793.5 L1397.8 792.4 L1398.2 791.3 L1398.7 790.3 L1399.3 789.3 L1400.1 788.4 L1400.8 787.5 L1401.7 786.6 L1402.6 785.7 L1403.5 785.0 L1404.5 784.2 L1405.5 783.5 L1406.5 782.8 L1407.6 782.1 L1408.6 781.4 L1409.7 780.8 L1410.8 780.2 L1412.0 779.7 L1413.1 779.2 L1414.3 778.7 L1415.5 778.3 L1416.8 778.0 L1418.0 777.7 L1419.3 777.5 L1420.6 777.4 L1421.9 777.4 L1423.2 777.5 L1424.5 777.6 L1425.8 777.9 L1427.1 778.2 L1428.3 778.5 L1429.4 779.0 L1430.6 779.4 L1431.6 779.9 L1432.6 780.4 L1433.6 780.9 L1434.5 781.4 L1435.4 781.8 L1436.4 782.2 L1437.3 782.5 L1438.2 782.8 L1439.1 783.0 L1440.1 783.2 L1441.2 783.3 L1442.3 783.3 L1443.5 783.3 L1444.8 783.4 L1446.1 783.4 L1447.5 783.4 L1449.0 783.5 L1450.5 783.6 L1452.0 783.9 L1453.5 784.1 L1454.9 784.5 L1456.4 785.0 L1457.7 785.6 L1458.9 786.3 L1460.1 787.1 L1461.1 787.9 L1461.9 788.9 L1462.6 789.9 L1463.1 791.0 L1463.5 792.1 L1463.7 793.2 L1463.8 794.4 L1463.8 795.5 L1463.6 796.7 L1463.4 797.8 L1463.1 798.9 L1462.7 800.0 Z" fill="none" stroke="#E6C77E" stroke-width="1.41" opacity="0.47"/>
  <path d="M1493.5 800.0 L1492.8 802.1 L1492.0 804.1 L1491.3 806.1 L1490.5 808.0 L1489.8 809.9 L1489.0 811.8 L1488.1 813.7 L1487.2 815.6 L1486.2 817.4 L1485.2 819.2 L1484.0 821.0 L1482.7 822.7 L1481.3 824.3 L1479.7 825.9 L1478.1 827.3 L1476.3 828.7 L1474.4 830.0 L1472.4 831.1 L1470.3 832.2 L1468.2 833.2 L1466.0 834.1 L1463.8 834.9 L1461.6 835.6 L1459.5 836.3 L1457.3 837.0 L1455.2 837.7 L1453.1 838.4 L1451.0 839.1 L1449.0 839.9 L1446.9 840.7 L1444.8 841.6 L1442.7 842.4 L1440.6 843.4 L1438.4 844.3 L1436.1 845.2 L1433.7 846.1 L1431.3 846.9 L1428.7 847.6 L1426.1 848.2 L1423.5 848.7 L1420.8 848.9 L1418.1 849.0 L1415.4 848.8 L1412.7 848.4 L1410.2 847.8 L1407.7 846.9 L1405.4 845.8 L1403.2 844.6 L1401.2 843.1 L1399.4 841.5 L1397.7 839.8 L1396.2 838.1 L1394.9 836.2 L1393.7 834.4 L1392.5 832.6 L1391.5 830.8 L1390.5 829.0 L1389.5 827.3 L1388.5 825.7 L1387.4 824.2 L1386.3 822.7 L1385.0 821.3 L1383.7 819.9 L1382.2 818.6 L1380.6 817.2 L1378.9 815.8 L1377.2 814.4 L1375.4 812.9 L1373.6 811.3 L1371.9 809.7 L1370.2 807.9 L1368.7 806.1 L1367.3 804.1 L1366.1 802.1 L1365.1 800.0 L1364.4 797.8 L1363.9 795.7 L1363.8 793.5 L1363.8 791.2 L1364.2 789.1 L1364.8 786.9 L1365.6 784.8 L1366.6 782.7 L1367.9 780.7 L1369.2 778.8 L1370.7 777.0 L1372.3 775.2 L1374.0 773.5 L1375.8 771.8 L1377.6 770.2 L1379.5 768.7 L1381.4 767.2 L1383.4 765.7 L1385.4 764.3 L1387.5 763.0 L1389.6 761.8 L1391.8 760.6 L1394.1 759.5 L1396.4 758.6 L1398.8 757.8 L1401.3 757.1 L1403.9 756.6 L1406.5 756.2 L1409.1 756.1 L1411.8 756.1 L1414.4 756.3 L1417.0 756.6 L1419.5 757.1 L1422.0 757.7 L1424.4 758.5 L1426.7 759.3 L1428.9 760.1 L1431.0 761.0 L1433.1 761.8 L1435.0 762.6 L1436.9 763.3 L1438.8 763.8 L1440.7 764.3 L1442.6 764.7 L1444.6 764.9 L1446.6 765.0 L1448.8 765.0 L1451.1 764.9 L1453.5 764.8 L1456.1 764.6 L1458.8 764.5 L1461.7 764.3 L1464.6 764.3 L1467.6 764.4 L1470.7 764.7 L1473.7 765.1 L1476.7 765.7 L1479.6 766.5 L1482.3 767.5 L1484.9 768.8 L1487.2 770.2 L1489.3 771.9 L1491.1 773.7 L1492.6 775.7 L1493.9 777.7 L1494.8 779.9 L1495.4 782.2 L1495.8 784.4 L1496.0 786.7 L1495.9 789.0 L1495.6 791.3 L1495.2 793.6 L1494.7 795.7 L1494.1 797.9 L1493.5 800.0 Z" fill="none" stroke="#E6C77E" stroke-width="1.32" opacity="0.43"/>
  <path d="M1523.1 800.0 L1522.4 803.0 L1521.7 806.0 L1520.9 809.0 L1520.1 811.9 L1519.2 814.8 L1518.2 817.7 L1517.0 820.6 L1515.7 823.4 L1514.2 826.1 L1512.6 828.8 L1510.7 831.4 L1508.6 833.8 L1506.3 836.2 L1503.8 838.4 L1501.2 840.5 L1498.3 842.4 L1495.4 844.2 L1492.4 845.8 L1489.3 847.4 L1486.1 848.8 L1483.0 850.1 L1479.9 851.4 L1476.8 852.7 L1473.8 854.0 L1470.8 855.3 L1467.8 856.6 L1464.9 858.1 L1462.0 859.5 L1459.0 861.1 L1456.0 862.7 L1452.9 864.3 L1449.8 865.9 L1446.5 867.5 L1443.0 869.1 L1439.5 870.5 L1435.8 871.8 L1432.0 872.9 L1428.0 873.7 L1424.0 874.3 L1420.0 874.5 L1416.0 874.4 L1412.0 874.0 L1408.1 873.2 L1404.3 872.0 L1400.7 870.6 L1397.3 868.8 L1394.1 866.8 L1391.2 864.5 L1388.5 862.1 L1386.1 859.6 L1383.8 857.0 L1381.7 854.3 L1379.8 851.7 L1378.0 849.2 L1376.2 846.8 L1374.4 844.4 L1372.5 842.2 L1370.6 840.1 L1368.5 838.1 L1366.3 836.2 L1364.0 834.3 L1361.4 832.5 L1358.7 830.7 L1355.9 828.8 L1353.0 826.8 L1350.0 824.8 L1347.0 822.6 L1344.1 820.3 L1341.3 817.8 L1338.7 815.2 L1336.4 812.4 L1334.3 809.5 L1332.6 806.4 L1331.3 803.2 L1330.3 800.0 L1329.7 796.7 L1329.6 793.4 L1329.8 790.1 L1330.4 786.8 L1331.3 783.6 L1332.6 780.4 L1334.1 777.3 L1335.8 774.3 L1337.7 771.4 L1339.8 768.6 L1342.1 765.8 L1344.4 763.2 L1346.8 760.6 L1349.3 758.1 L1351.9 755.6 L1354.6 753.2 L1357.4 751.0 L1360.3 748.8 L1363.3 746.7 L1366.4 744.7 L1369.7 742.9 L1373.1 741.3 L1376.6 739.9 L1380.3 738.7 L1384.0 737.7 L1387.9 737.0 L1391.9 736.6 L1395.8 736.4 L1399.8 736.5 L1403.8 736.8 L1407.6 737.3 L1411.4 738.1 L1415.1 738.9 L1418.7 739.9 L1422.1 741.0 L1425.3 742.0 L1428.5 743.0 L1431.5 743.9 L1434.4 744.7 L1437.3 745.3 L1440.2 745.7 L1443.2 745.9 L1446.2 746.0 L1449.3 745.8 L1452.6 745.5 L1456.1 745.1 L1459.8 744.6 L1463.6 744.0 L1467.7 743.5 L1472.0 743.1 L1476.4 742.8 L1481.0 742.6 L1485.5 742.7 L1490.1 743.1 L1494.7 743.8 L1499.0 744.8 L1503.2 746.2 L1507.2 747.9 L1510.8 749.9 L1514.1 752.2 L1517.0 754.8 L1519.5 757.6 L1521.5 760.6 L1523.2 763.8 L1524.4 767.1 L1525.3 770.5 L1525.8 773.9 L1526.1 777.3 L1526.1 780.7 L1525.8 784.1 L1525.5 787.4 L1525.0 790.6 L1524.4 793.8 L1523.8 796.9 L1523.1 800.0 Z" fill="none" stroke="#C6A75E" stroke-width="1.23" opacity="0.38"/>
  <path d="M1552.6 800.0 L1552.0 804.0 L1551.5 808.0 L1550.7 811.9 L1549.8 815.9 L1548.8 819.8 L1547.4 823.6 L1545.9 827.4 L1544.0 831.1 L1541.9 834.7 L1539.4 838.1 L1536.6 841.4 L1533.6 844.6 L1530.3 847.5 L1526.8 850.3 L1523.2 853.0 L1519.3 855.4 L1515.5 857.7 L1511.5 859.9 L1507.6 862.0 L1503.7 864.1 L1499.8 866.1 L1496.0 868.1 L1492.3 870.2 L1488.6 872.3 L1484.9 874.5 L1481.3 876.8 L1477.6 879.2 L1473.8 881.6 L1470.0 884.1 L1465.9 886.6 L1461.8 889.0 L1457.4 891.4 L1452.8 893.6 L1448.0 895.5 L1443.1 897.2 L1437.9 898.6 L1432.7 899.5 L1427.3 900.1 L1421.9 900.2 L1416.6 899.7 L1411.3 898.9 L1406.2 897.5 L1401.3 895.7 L1396.6 893.6 L1392.2 891.0 L1388.1 888.2 L1384.2 885.2 L1380.7 882.0 L1377.4 878.8 L1374.3 875.5 L1371.3 872.3 L1368.5 869.2 L1365.8 866.2 L1363.0 863.4 L1360.1 860.7 L1357.2 858.2 L1354.0 855.8 L1350.7 853.6 L1347.1 851.4 L1343.3 849.3 L1339.4 847.1 L1335.2 844.9 L1331.0 842.6 L1326.6 840.2 L1322.3 837.5 L1318.1 834.7 L1314.1 831.6 L1310.3 828.3 L1306.8 824.8 L1303.7 821.0 L1301.0 817.1 L1298.9 813.0 L1297.2 808.7 L1296.1 804.4 L1295.5 800.0 L1295.4 795.6 L1295.8 791.2 L1296.6 786.8 L1297.8 782.5 L1299.4 778.3 L1301.2 774.1 L1303.4 770.1 L1305.7 766.1 L1308.2 762.3 L1310.9 758.5 L1313.7 754.8 L1316.6 751.2 L1319.7 747.7 L1322.9 744.3 L1326.3 741.0 L1329.8 737.8 L1333.5 734.8 L1337.4 731.9 L1341.5 729.3 L1345.8 726.8 L1350.4 724.7 L1355.2 722.8 L1360.1 721.3 L1365.2 720.1 L1370.4 719.3 L1375.7 718.8 L1381.1 718.6 L1386.4 718.8 L1391.6 719.2 L1396.8 719.9 L1401.7 720.8 L1406.6 721.8 L1411.2 722.9 L1415.6 723.9 L1419.9 724.9 L1424.0 725.8 L1428.0 726.4 L1432.0 726.9 L1435.9 727.0 L1439.8 727.0 L1443.8 726.6 L1448.0 726.0 L1452.4 725.2 L1457.0 724.2 L1461.9 723.1 L1467.1 722.0 L1472.5 720.9 L1478.1 720.0 L1484.0 719.2 L1490.0 718.6 L1496.1 718.5 L1502.3 718.6 L1508.3 719.3 L1514.2 720.3 L1519.9 721.9 L1525.3 723.9 L1530.2 726.3 L1534.8 729.2 L1538.9 732.5 L1542.4 736.1 L1545.5 740.0 L1548.0 744.1 L1550.0 748.4 L1551.6 752.8 L1552.7 757.2 L1553.5 761.7 L1554.0 766.2 L1554.3 770.6 L1554.3 775.0 L1554.2 779.3 L1554.0 783.6 L1553.7 787.8 L1553.4 791.9 L1553.0 796.0 L1552.6 800.0 Z" fill="none" stroke="#C6A75E" stroke-width="1.14" opacity="0.33"/>
  <path d="M1582.5 800.0 L1582.2 805.0 L1581.6 810.0 L1580.8 814.9 L1579.7 819.8 L1578.3 824.7 L1576.4 829.4 L1574.1 834.1 L1571.5 838.6 L1568.4 842.9 L1565.0 847.1 L1561.3 851.0 L1557.3 854.8 L1553.1 858.3 L1548.6 861.7 L1544.1 864.9 L1539.6 868.0 L1535.0 870.9 L1530.5 873.8 L1526.0 876.7 L1521.6 879.6 L1517.3 882.6 L1513.1 885.6 L1508.9 888.8 L1504.6 892.0 L1500.4 895.4 L1496.0 898.8 L1491.5 902.3 L1486.8 905.8 L1481.9 909.2 L1476.7 912.4 L1471.2 915.5 L1465.4 918.3 L1459.4 920.7 L1453.1 922.6 L1446.7 924.1 L1440.1 925.0 L1433.4 925.4 L1426.7 925.1 L1420.0 924.2 L1413.5 922.8 L1407.2 920.8 L1401.2 918.3 L1395.4 915.4 L1390.0 912.2 L1384.9 908.7 L1380.1 905.0 L1375.6 901.3 L1371.4 897.5 L1367.3 893.9 L1363.4 890.3 L1359.5 887.0 L1355.6 883.8 L1351.6 880.9 L1347.4 878.1 L1343.0 875.6 L1338.4 873.2 L1333.5 870.9 L1328.4 868.6 L1323.0 866.4 L1317.4 864.0 L1311.7 861.5 L1305.9 858.8 L1300.1 855.9 L1294.4 852.7 L1289.0 849.1 L1283.8 845.3 L1279.1 841.1 L1274.8 836.7 L1271.1 831.9 L1267.9 827.0 L1265.4 821.8 L1263.5 816.5 L1262.3 811.0 L1261.7 805.5 L1261.6 800.0 L1262.1 794.5 L1263.1 789.0 L1264.5 783.6 L1266.2 778.3 L1268.3 773.1 L1270.6 768.0 L1273.2 762.9 L1275.9 758.0 L1278.9 753.2 L1282.0 748.4 L1285.3 743.8 L1288.8 739.2 L1292.5 734.8 L1296.5 730.6 L1300.7 726.5 L1305.2 722.6 L1310.1 719.0 L1315.2 715.7 L1320.7 712.7 L1326.5 710.0 L1332.5 707.8 L1338.8 706.0 L1345.3 704.6 L1351.9 703.7 L1358.5 703.1 L1365.2 703.0 L1371.8 703.2 L1378.3 703.7 L1384.6 704.4 L1390.7 705.3 L1396.5 706.2 L1402.2 707.1 L1407.5 707.9 L1412.7 708.5 L1417.8 708.8 L1422.7 708.9 L1427.6 708.6 L1432.5 708.0 L1437.5 707.1 L1442.6 705.9 L1448.0 704.3 L1453.7 702.6 L1459.7 700.8 L1466.1 698.9 L1472.7 697.1 L1479.7 695.4 L1487.0 694.0 L1494.4 692.9 L1502.0 692.2 L1509.6 692.1 L1517.2 692.5 L1524.6 693.5 L1531.8 695.1 L1538.6 697.3 L1545.0 700.1 L1550.9 703.4 L1556.2 707.3 L1561.0 711.5 L1565.1 716.2 L1568.7 721.1 L1571.7 726.3 L1574.2 731.7 L1576.1 737.1 L1577.7 742.6 L1579.0 748.1 L1579.9 753.6 L1580.6 759.0 L1581.2 764.3 L1581.6 769.5 L1582.0 774.7 L1582.2 779.9 L1582.4 784.9 L1582.6 790.0 L1582.6 795.0 L1582.5 800.0 Z" fill="none" stroke="#C6A75E" stroke-width="1.06" opacity="0.29"/>
  <path d="M1612.9 800.0 L1612.6 806.0 L1611.9 812.0 L1610.7 817.9 L1609.1 823.7 L1606.9 829.4 L1604.3 835.0 L1601.1 840.4 L1597.5 845.7 L1593.5 850.7 L1589.2 855.5 L1584.5 860.0 L1579.7 864.4 L1574.8 868.6 L1569.8 872.7 L1564.8 876.6 L1559.8 880.5 L1555.0 884.4 L1550.2 888.3 L1545.5 892.3 L1540.9 896.4 L1536.3 900.6 L1531.8 904.9 L1527.1 909.4 L1522.4 913.9 L1517.4 918.5 L1512.2 923.0 L1506.7 927.5 L1500.8 931.8 L1494.5 935.8 L1487.9 939.4 L1480.9 942.7 L1473.6 945.3 L1465.9 947.4 L1458.1 948.8 L1450.1 949.5 L1442.0 949.4 L1434.0 948.7 L1426.1 947.3 L1418.3 945.2 L1410.9 942.5 L1403.7 939.4 L1396.9 935.9 L1390.4 932.0 L1384.3 928.0 L1378.5 924.0 L1373.0 919.9 L1367.7 915.9 L1362.6 912.2 L1357.4 908.6 L1352.3 905.3 L1347.0 902.3 L1341.6 899.6 L1335.9 897.1 L1329.9 894.7 L1323.6 892.5 L1317.0 890.3 L1310.1 888.1 L1302.9 885.8 L1295.7 883.3 L1288.3 880.6 L1281.0 877.5 L1273.7 874.1 L1266.8 870.2 L1260.2 866.0 L1254.0 861.3 L1248.5 856.3 L1243.5 850.8 L1239.2 845.1 L1235.7 839.0 L1232.9 832.8 L1230.8 826.4 L1229.4 819.8 L1228.7 813.2 L1228.6 806.6 L1229.1 800.0 L1230.1 793.4 L1231.5 787.0 L1233.2 780.5 L1235.3 774.2 L1237.6 768.0 L1240.2 761.9 L1243.0 755.8 L1246.0 749.9 L1249.3 744.0 L1252.9 738.3 L1256.7 732.7 L1260.9 727.3 L1265.5 722.0 L1270.5 717.1 L1275.9 712.4 L1281.8 708.1 L1288.0 704.1 L1294.7 700.6 L1301.8 697.6 L1309.2 695.0 L1316.9 693.0 L1324.7 691.4 L1332.7 690.4 L1340.7 689.8 L1348.6 689.6 L1356.4 689.8 L1363.9 690.1 L1371.3 690.7 L1378.3 691.3 L1385.1 691.8 L1391.5 692.2 L1397.7 692.4 L1403.7 692.2 L1409.6 691.8 L1415.3 690.9 L1421.1 689.6 L1427.0 687.8 L1433.1 685.7 L1439.4 683.3 L1446.0 680.7 L1453.0 677.9 L1460.4 675.1 L1468.3 672.3 L1476.4 669.8 L1485.0 667.6 L1493.8 665.8 L1502.7 664.6 L1511.8 663.9 L1520.9 664.0 L1529.8 664.8 L1538.4 666.3 L1546.7 668.6 L1554.5 671.6 L1561.8 675.3 L1568.5 679.6 L1574.6 684.4 L1580.0 689.7 L1584.8 695.4 L1588.9 701.4 L1592.5 707.6 L1595.5 713.9 L1598.1 720.3 L1600.3 726.7 L1602.2 733.1 L1603.9 739.4 L1605.3 745.7 L1606.7 751.8 L1607.9 758.0 L1609.1 764.0 L1610.1 770.0 L1611.1 776.0 L1611.9 782.0 L1612.5 788.0 L1612.9 794.0 L1612.9 800.0 Z" fill="none" stroke="#C6A75E" stroke-width="0.97" opacity="0.24"/>
  <path d="M1643.3 800.0 L1642.6 807.0 L1641.4 813.9 L1639.5 820.7 L1637.0 827.4 L1634.0 833.9 L1630.4 840.3 L1626.3 846.4 L1621.8 852.3 L1617.1 858.0 L1612.0 863.4 L1606.9 868.7 L1601.6 873.8 L1596.4 878.9 L1591.3 883.9 L1586.2 888.8 L1581.3 893.9 L1576.5 899.0 L1571.8 904.2 L1567.1 909.6 L1562.4 915.1 L1557.6 920.7 L1552.6 926.4 L1547.4 932.2 L1541.8 937.9 L1535.9 943.5 L1529.5 948.9 L1522.6 953.9 L1515.2 958.6 L1507.3 962.6 L1499.0 966.1 L1490.2 968.8 L1481.2 970.8 L1471.9 972.0 L1462.5 972.3 L1453.1 971.8 L1443.7 970.4 L1434.5 968.4 L1425.6 965.7 L1416.9 962.5 L1408.7 958.8 L1400.8 954.8 L1393.3 950.6 L1386.1 946.4 L1379.3 942.2 L1372.7 938.1 L1366.2 934.3 L1359.7 930.8 L1353.3 927.6 L1346.7 924.7 L1339.9 922.2 L1332.8 919.9 L1325.3 917.8 L1317.6 915.9 L1309.4 914.1 L1301.0 912.1 L1292.3 910.1 L1283.4 907.8 L1274.4 905.1 L1265.4 902.1 L1256.6 898.6 L1248.1 894.6 L1239.9 890.1 L1232.3 885.1 L1225.3 879.5 L1219.0 873.5 L1213.4 867.1 L1208.7 860.3 L1204.8 853.2 L1201.7 845.9 L1199.3 838.4 L1197.8 830.7 L1196.9 823.0 L1196.6 815.3 L1196.9 807.6 L1197.6 800.0 L1198.8 792.4 L1200.3 784.9 L1202.1 777.5 L1204.2 770.1 L1206.6 762.8 L1209.3 755.7 L1212.4 748.6 L1215.8 741.6 L1219.6 734.8 L1223.8 728.2 L1228.6 721.7 L1233.8 715.6 L1239.7 709.8 L1246.1 704.4 L1253.0 699.4 L1260.5 694.9 L1268.5 690.9 L1276.9 687.5 L1285.7 684.7 L1294.7 682.4 L1303.9 680.7 L1313.2 679.5 L1322.4 678.8 L1331.4 678.4 L1340.2 678.3 L1348.7 678.3 L1356.9 678.4 L1364.7 678.4 L1372.1 678.2 L1379.3 677.8 L1386.1 677.0 L1392.8 675.7 L1399.3 674.0 L1405.8 671.8 L1412.4 669.1 L1419.2 666.0 L1426.3 662.6 L1433.8 658.8 L1441.7 655.0 L1450.0 651.0 L1458.8 647.2 L1468.1 643.7 L1477.8 640.5 L1487.8 637.9 L1498.1 635.9 L1508.5 634.7 L1519.0 634.3 L1529.4 634.8 L1539.5 636.1 L1549.3 638.3 L1558.6 641.5 L1567.3 645.4 L1575.5 650.0 L1583.0 655.3 L1589.7 661.2 L1595.8 667.5 L1601.3 674.1 L1606.1 681.0 L1610.4 688.1 L1614.2 695.2 L1617.6 702.4 L1620.7 709.6 L1623.6 716.7 L1626.2 723.8 L1628.7 730.8 L1631.1 737.7 L1633.3 744.6 L1635.5 751.4 L1637.5 758.3 L1639.3 765.2 L1640.9 772.1 L1642.1 779.0 L1643.0 786.0 L1643.4 793.0 L1643.3 800.0 Z" fill="none" stroke="#C6A75E" stroke-width="0.88" opacity="0.19"/>
  <path d="M1672.7 800.0 L1671.3 807.9 L1669.2 815.7 L1666.4 823.4 L1663.0 830.8 L1659.1 838.1 L1654.7 845.2 L1650.0 852.0 L1645.0 858.6 L1639.8 865.0 L1634.6 871.3 L1629.5 877.5 L1624.4 883.6 L1619.4 889.8 L1614.6 896.0 L1609.9 902.3 L1605.3 908.7 L1600.7 915.3 L1596.1 922.1 L1591.4 929.0 L1586.4 935.9 L1581.1 942.9 L1575.4 949.9 L1569.2 956.7 L1562.4 963.3 L1555.0 969.4 L1547.0 975.1 L1538.3 980.1 L1529.1 984.5 L1519.3 988.0 L1509.1 990.6 L1498.6 992.3 L1487.8 993.0 L1477.0 992.8 L1466.2 991.8 L1455.5 989.9 L1445.1 987.3 L1434.9 984.1 L1425.2 980.4 L1415.8 976.4 L1406.9 972.3 L1398.3 968.1 L1390.0 963.9 L1382.0 960.0 L1374.2 956.4 L1366.4 953.1 L1358.6 950.2 L1350.7 947.7 L1342.5 945.6 L1333.9 943.8 L1325.1 942.2 L1315.8 940.8 L1306.2 939.5 L1296.1 938.0 L1285.8 936.4 L1275.3 934.5 L1264.7 932.1 L1254.0 929.3 L1243.6 925.9 L1233.4 922.0 L1223.6 917.3 L1214.4 912.1 L1205.9 906.2 L1198.1 899.8 L1191.2 892.8 L1185.1 885.3 L1179.9 877.5 L1175.6 869.3 L1172.1 860.9 L1169.4 852.4 L1167.5 843.7 L1166.2 834.9 L1165.6 826.1 L1165.4 817.4 L1165.7 808.7 L1166.3 800.0 L1167.4 791.4 L1168.8 782.8 L1170.5 774.3 L1172.7 765.9 L1175.2 757.6 L1178.2 749.4 L1181.7 741.3 L1185.8 733.4 L1190.5 725.8 L1195.8 718.4 L1201.9 711.4 L1208.7 704.8 L1216.2 698.7 L1224.4 693.1 L1233.2 688.1 L1242.6 683.7 L1252.4 680.0 L1262.5 676.9 L1272.8 674.4 L1283.2 672.4 L1293.6 671.0 L1303.8 669.9 L1313.8 669.1 L1323.3 668.5 L1332.5 667.9 L1341.3 667.2 L1349.6 666.3 L1357.5 665.0 L1365.1 663.3 L1372.4 661.2 L1379.5 658.5 L1386.6 655.2 L1393.8 651.4 L1401.2 647.1 L1408.8 642.4 L1416.9 637.5 L1425.5 632.3 L1434.6 627.2 L1444.3 622.2 L1454.5 617.5 L1465.2 613.3 L1476.4 609.7 L1487.9 606.9 L1499.6 605.0 L1511.4 604.0 L1523.1 604.0 L1534.7 605.0 L1546.0 607.1 L1556.8 610.2 L1567.1 614.2 L1576.7 619.1 L1585.7 624.7 L1594.0 630.9 L1601.5 637.7 L1608.5 644.9 L1614.7 652.4 L1620.4 660.0 L1625.7 667.8 L1630.5 675.6 L1635.0 683.4 L1639.2 691.2 L1643.2 698.9 L1647.1 706.6 L1650.9 714.2 L1654.5 721.8 L1658.0 729.4 L1661.2 737.0 L1664.3 744.6 L1667.0 752.4 L1669.4 760.2 L1671.2 768.1 L1672.6 776.0 L1673.3 784.0 L1673.3 792.0 L1672.7 800.0 Z" fill="none" stroke="#9C7C3C" stroke-width="0.79" opacity="0.15"/>
  <path d="M1700.0 800.0 L1697.8 808.8 L1694.8 817.4 L1691.3 825.8 L1687.2 834.0 L1682.7 842.0 L1678.0 849.8 L1673.1 857.5 L1668.2 864.9 L1663.3 872.3 L1658.6 879.6 L1653.9 887.0 L1649.5 894.4 L1645.2 902.0 L1641.0 909.7 L1636.8 917.6 L1632.5 925.6 L1628.1 933.8 L1623.3 942.1 L1618.2 950.4 L1612.5 958.6 L1606.2 966.7 L1599.2 974.5 L1591.4 981.8 L1582.9 988.5 L1573.6 994.6 L1563.5 999.9 L1552.8 1004.2 L1541.5 1007.6 L1529.7 1009.9 L1517.7 1011.2 L1505.4 1011.5 L1493.2 1010.8 L1481.0 1009.2 L1469.0 1006.8 L1457.4 1003.9 L1446.1 1000.4 L1435.3 996.6 L1424.8 992.6 L1414.8 988.6 L1405.2 984.8 L1395.8 981.2 L1386.6 978.0 L1377.5 975.2 L1368.3 972.8 L1359.0 970.9 L1349.5 969.4 L1339.6 968.3 L1329.3 967.5 L1318.6 966.8 L1307.4 966.2 L1295.9 965.4 L1284.0 964.4 L1271.8 963.1 L1259.5 961.3 L1247.3 958.8 L1235.1 955.7 L1223.3 951.9 L1211.9 947.3 L1201.0 942.0 L1190.9 935.9 L1181.6 929.2 L1173.1 921.8 L1165.5 913.8 L1158.9 905.3 L1153.2 896.4 L1148.4 887.3 L1144.4 877.8 L1141.2 868.2 L1138.7 858.5 L1136.8 848.8 L1135.4 839.0 L1134.6 829.2 L1134.2 819.4 L1134.2 809.7 L1134.6 800.0 L1135.4 790.3 L1136.7 780.7 L1138.5 771.2 L1140.8 761.7 L1143.8 752.4 L1147.5 743.2 L1151.9 734.3 L1157.2 725.7 L1163.4 717.4 L1170.4 709.6 L1178.3 702.2 L1187.1 695.5 L1196.6 689.4 L1206.7 683.9 L1217.4 679.1 L1228.5 675.0 L1239.9 671.6 L1251.4 668.7 L1262.8 666.4 L1274.1 664.5 L1285.0 662.9 L1295.6 661.4 L1305.6 659.9 L1315.2 658.4 L1324.2 656.5 L1332.7 654.3 L1340.8 651.6 L1348.6 648.4 L1356.1 644.5 L1363.6 640.0 L1371.1 635.0 L1378.9 629.4 L1386.9 623.4 L1395.5 617.0 L1404.6 610.5 L1414.2 604.0 L1424.6 597.8 L1435.6 591.8 L1447.2 586.5 L1459.3 581.8 L1471.9 578.1 L1484.8 575.3 L1497.8 573.6 L1511.0 573.1 L1523.9 573.7 L1536.7 575.5 L1549.0 578.5 L1560.8 582.4 L1572.0 587.4 L1582.6 593.2 L1592.5 599.7 L1601.6 606.7 L1610.1 614.3 L1618.0 622.2 L1625.3 630.3 L1632.1 638.5 L1638.5 646.8 L1644.6 655.0 L1650.4 663.3 L1656.0 671.5 L1661.5 679.6 L1666.8 687.8 L1672.0 695.9 L1677.0 704.1 L1681.7 712.3 L1686.2 720.6 L1690.3 729.1 L1693.9 737.6 L1697.0 746.3 L1699.4 755.2 L1701.1 764.1 L1702.1 773.1 L1702.2 782.1 L1701.5 791.1 L1700.0 800.0 Z" fill="none" stroke="#9C7C3C" stroke-width="0.70" opacity="0.10"/>
  <path d="M1057.1 830.0 L1056.9 830.9 L1056.7 831.8 L1056.3 832.8 L1055.8 833.6 L1055.3 834.5 L1054.6 835.3 L1053.9 836.1 L1053.1 836.9 L1052.3 837.7 L1051.5 838.4 L1050.6 839.1 L1049.7 839.8 L1048.9 840.5 L1048.0 841.2 L1047.2 841.9 L1046.4 842.6 L1045.6 843.3 L1044.8 844.0 L1044.1 844.7 L1043.3 845.5 L1042.4 846.3 L1041.6 847.1 L1040.7 847.8 L1039.7 848.6 L1038.6 849.4 L1037.5 850.1 L1036.2 850.7 L1034.9 851.3 L1033.5 851.8 L1032.0 852.2 L1030.5 852.5 L1028.9 852.7 L1027.3 852.8 L1025.6 852.8 L1024.0 852.7 L1022.4 852.5 L1020.8 852.2 L1019.2 851.8 L1017.8 851.3 L1016.4 850.8 L1015.0 850.3 L1013.7 849.7 L1012.5 849.2 L1011.3 848.7 L1010.1 848.2 L1009.0 847.7 L1007.9 847.3 L1006.7 847.0 L1005.5 846.6 L1004.3 846.3 L1003.0 846.1 L1001.6 845.9 L1000.2 845.6 L998.7 845.4 L997.2 845.2 L995.7 844.9 L994.1 844.6 L992.5 844.2 L990.9 843.8 L989.4 843.3 L987.9 842.8 L986.6 842.2 L985.3 841.5 L984.1 840.7 L983.1 839.9 L982.2 839.0 L981.4 838.1 L980.8 837.1 L980.3 836.1 L979.9 835.1 L979.7 834.1 L979.6 833.1 L979.5 832.0 L979.6 831.0 L979.7 830.0 L979.9 829.0 L980.1 828.0 L980.4 827.0 L980.8 826.0 L981.2 825.0 L981.6 824.1 L982.2 823.1 L982.8 822.2 L983.4 821.3 L984.2 820.4 L985.0 819.6 L986.0 818.8 L987.0 818.0 L988.2 817.3 L989.5 816.7 L990.8 816.1 L992.2 815.6 L993.7 815.2 L995.3 814.8 L996.9 814.6 L998.5 814.4 L1000.1 814.2 L1001.6 814.1 L1003.2 814.1 L1004.7 814.1 L1006.1 814.0 L1007.5 814.0 L1008.8 814.0 L1010.0 813.9 L1011.2 813.8 L1012.4 813.6 L1013.5 813.4 L1014.6 813.1 L1015.7 812.7 L1016.9 812.3 L1018.1 811.8 L1019.3 811.3 L1020.7 810.8 L1022.1 810.2 L1023.6 809.7 L1025.1 809.2 L1026.8 808.7 L1028.5 808.3 L1030.2 808.0 L1032.0 807.8 L1033.9 807.6 L1035.7 807.6 L1037.4 807.8 L1039.2 808.0 L1040.8 808.4 L1042.4 808.8 L1043.9 809.4 L1045.2 810.1 L1046.5 810.8 L1047.6 811.6 L1048.6 812.5 L1049.5 813.4 L1050.3 814.3 L1051.1 815.2 L1051.7 816.2 L1052.3 817.1 L1052.9 818.0 L1053.4 819.0 L1053.9 819.9 L1054.4 820.8 L1054.8 821.7 L1055.3 822.6 L1055.7 823.5 L1056.1 824.4 L1056.4 825.4 L1056.7 826.3 L1056.9 827.2 L1057.0 828.1 L1057.1 829.1 L1057.1 830.0 Z" fill="none" stroke="#E6C77E" stroke-width="1.40" opacity="0.40"/>
  <path d="M1093.6 830.0 L1093.2 831.8 L1092.5 833.7 L1091.6 835.4 L1090.5 837.2 L1089.3 838.8 L1087.9 840.5 L1086.5 842.1 L1085.1 843.6 L1083.6 845.1 L1082.1 846.6 L1080.6 848.0 L1079.1 849.5 L1077.7 851.0 L1076.4 852.5 L1075.1 854.0 L1073.8 855.6 L1072.4 857.2 L1071.1 858.8 L1069.7 860.4 L1068.2 862.1 L1066.6 863.8 L1064.8 865.4 L1062.8 867.0 L1060.7 868.5 L1058.4 869.9 L1055.8 871.1 L1053.1 872.2 L1050.2 873.1 L1047.2 873.8 L1044.0 874.3 L1040.8 874.6 L1037.5 874.7 L1034.2 874.5 L1030.9 874.2 L1027.7 873.7 L1024.5 873.0 L1021.5 872.2 L1018.6 871.4 L1015.8 870.5 L1013.1 869.5 L1010.5 868.6 L1008.0 867.7 L1005.6 866.9 L1003.2 866.2 L1000.8 865.5 L998.3 865.0 L995.8 864.5 L993.2 864.1 L990.5 863.8 L987.7 863.5 L984.8 863.3 L981.7 863.0 L978.6 862.7 L975.4 862.4 L972.1 861.9 L968.9 861.3 L965.6 860.6 L962.4 859.8 L959.4 858.8 L956.5 857.7 L953.8 856.4 L951.3 855.0 L949.0 853.4 L947.0 851.7 L945.3 850.0 L943.8 848.1 L942.6 846.2 L941.6 844.2 L940.8 842.2 L940.3 840.2 L939.9 838.1 L939.7 836.1 L939.7 834.0 L939.7 832.0 L939.9 830.0 L940.2 828.0 L940.6 826.0 L941.1 824.0 L941.7 822.1 L942.5 820.1 L943.4 818.2 L944.5 816.3 L945.8 814.5 L947.3 812.7 L949.0 811.0 L950.9 809.4 L953.1 807.9 L955.5 806.6 L958.1 805.3 L960.8 804.2 L963.7 803.2 L966.8 802.4 L969.9 801.8 L973.0 801.2 L976.2 800.8 L979.3 800.5 L982.3 800.2 L985.3 800.0 L988.1 799.8 L990.8 799.6 L993.3 799.4 L995.7 799.0 L998.0 798.6 L1000.2 798.1 L1002.4 797.5 L1004.5 796.7 L1006.6 795.8 L1008.8 794.8 L1011.1 793.6 L1013.4 792.4 L1015.9 791.2 L1018.6 790.0 L1021.4 788.7 L1024.5 787.6 L1027.6 786.5 L1030.9 785.6 L1034.4 784.8 L1037.9 784.2 L1041.5 783.9 L1045.0 783.8 L1048.6 783.9 L1052.0 784.3 L1055.4 784.9 L1058.6 785.7 L1061.6 786.7 L1064.5 788.0 L1067.1 789.3 L1069.5 790.8 L1071.8 792.4 L1073.8 794.1 L1075.7 795.9 L1077.4 797.6 L1079.0 799.4 L1080.5 801.2 L1081.9 803.0 L1083.3 804.8 L1084.6 806.5 L1085.8 808.3 L1087.0 810.0 L1088.2 811.8 L1089.3 813.5 L1090.4 815.3 L1091.3 817.1 L1092.2 818.9 L1092.9 820.7 L1093.4 822.5 L1093.8 824.4 L1094.0 826.3 L1093.9 828.1 L1093.6 830.0 Z" fill="none" stroke="#E6C77E" stroke-width="1.30" opacity="0.35"/>
  <path d="M1129.0 830.0 L1128.0 832.7 L1126.8 835.4 L1125.3 838.0 L1123.7 840.5 L1121.9 843.0 L1120.1 845.4 L1118.2 847.8 L1116.4 850.1 L1114.6 852.5 L1112.8 854.8 L1111.1 857.1 L1109.5 859.5 L1107.9 861.9 L1106.3 864.4 L1104.7 866.9 L1103.1 869.5 L1101.3 872.1 L1099.4 874.7 L1097.3 877.4 L1094.9 879.9 L1092.3 882.4 L1089.3 884.8 L1086.0 887.0 L1082.4 889.0 L1078.5 890.7 L1074.2 892.2 L1069.7 893.4 L1065.1 894.3 L1060.2 894.9 L1055.3 895.1 L1050.3 895.0 L1045.3 894.7 L1040.4 894.1 L1035.6 893.3 L1030.9 892.3 L1026.4 891.2 L1022.1 890.1 L1017.9 888.9 L1013.9 887.8 L1010.1 886.7 L1006.3 885.8 L1002.5 885.0 L998.8 884.3 L995.0 883.7 L991.1 883.3 L987.1 883.1 L983.0 882.9 L978.6 882.7 L974.1 882.6 L969.5 882.5 L964.7 882.3 L959.7 882.0 L954.7 881.6 L949.7 881.0 L944.7 880.2 L939.8 879.1 L935.1 877.8 L930.5 876.3 L926.3 874.6 L922.3 872.6 L918.7 870.4 L915.4 868.0 L912.4 865.5 L909.9 862.8 L907.7 860.0 L905.9 857.1 L904.3 854.2 L903.1 851.2 L902.1 848.2 L901.3 845.1 L900.7 842.1 L900.3 839.1 L900.1 836.0 L900.1 833.0 L900.2 830.0 L900.5 827.0 L901.0 824.0 L901.7 821.0 L902.7 818.1 L904.0 815.2 L905.6 812.4 L907.5 809.6 L909.8 807.0 L912.4 804.4 L915.5 802.1 L918.8 799.9 L922.5 797.8 L926.5 796.0 L930.7 794.4 L935.1 793.0 L939.7 791.8 L944.3 790.8 L948.9 789.9 L953.5 789.2 L957.9 788.6 L962.2 788.1 L966.3 787.6 L970.2 787.0 L973.9 786.4 L977.3 785.7 L980.6 784.8 L983.7 783.8 L986.7 782.5 L989.7 781.1 L992.7 779.5 L995.7 777.8 L998.8 775.9 L1002.1 773.8 L1005.7 771.8 L1009.4 769.7 L1013.5 767.6 L1017.8 765.7 L1022.3 763.9 L1027.1 762.3 L1032.1 761.0 L1037.2 759.9 L1042.5 759.2 L1047.8 758.9 L1053.1 758.9 L1058.3 759.3 L1063.4 760.0 L1068.3 761.1 L1072.9 762.5 L1077.4 764.2 L1081.5 766.1 L1085.4 768.1 L1089.1 770.4 L1092.4 772.7 L1095.6 775.2 L1098.5 777.7 L1101.3 780.2 L1103.9 782.7 L1106.5 785.2 L1108.9 787.7 L1111.3 790.2 L1113.6 792.7 L1115.9 795.2 L1118.1 797.6 L1120.2 800.2 L1122.2 802.7 L1124.0 805.3 L1125.7 807.9 L1127.2 810.6 L1128.4 813.3 L1129.3 816.1 L1129.9 818.8 L1130.2 821.6 L1130.1 824.5 L1129.7 827.2 L1129.0 830.0 Z" fill="none" stroke="#C6A75E" stroke-width="1.20" opacity="0.31"/>
  <path d="M1162.8 830.0 L1161.3 833.6 L1159.7 837.0 L1157.8 840.4 L1155.9 843.8 L1154.0 847.1 L1152.1 850.3 L1150.2 853.6 L1148.4 856.8 L1146.7 860.1 L1145.1 863.4 L1143.5 866.8 L1142.0 870.2 L1140.4 873.8 L1138.7 877.3 L1136.9 881.0 L1134.8 884.6 L1132.4 888.2 L1129.7 891.8 L1126.5 895.2 L1122.8 898.5 L1118.7 901.6 L1114.2 904.4 L1109.1 906.9 L1103.6 909.1 L1097.8 910.8 L1091.6 912.2 L1085.2 913.1 L1078.6 913.6 L1071.9 913.7 L1065.2 913.5 L1058.6 913.0 L1052.1 912.2 L1045.8 911.2 L1039.7 910.0 L1033.8 908.8 L1028.1 907.6 L1022.7 906.4 L1017.4 905.4 L1012.2 904.5 L1007.1 903.7 L1002.0 903.2 L996.8 902.9 L991.6 902.7 L986.2 902.7 L980.5 902.9 L974.7 903.1 L968.6 903.3 L962.3 903.5 L955.9 903.6 L949.2 903.6 L942.4 903.3 L935.6 902.8 L928.9 902.0 L922.2 900.9 L915.7 899.5 L909.4 897.8 L903.5 895.7 L897.9 893.2 L892.7 890.5 L888.0 887.5 L883.7 884.3 L879.9 880.9 L876.5 877.3 L873.5 873.6 L870.9 869.8 L868.7 866.0 L866.7 862.0 L865.1 858.1 L863.7 854.1 L862.5 850.1 L861.6 846.1 L860.9 842.1 L860.4 838.0 L860.2 834.0 L860.3 830.0 L860.7 826.0 L861.5 822.0 L862.7 818.1 L864.4 814.2 L866.5 810.4 L869.2 806.8 L872.4 803.3 L876.0 799.9 L880.2 796.8 L884.9 793.9 L890.0 791.3 L895.4 788.9 L901.1 786.8 L906.9 784.9 L912.9 783.3 L918.9 781.9 L924.7 780.7 L930.5 779.6 L936.0 778.5 L941.2 777.5 L946.2 776.5 L950.8 775.3 L955.2 774.0 L959.2 772.6 L963.1 770.9 L966.8 768.9 L970.4 766.7 L974.0 764.3 L977.6 761.7 L981.5 758.8 L985.5 755.9 L989.8 752.8 L994.5 749.8 L999.5 746.8 L1004.9 743.9 L1010.7 741.3 L1016.8 739.0 L1023.2 737.0 L1029.9 735.4 L1036.8 734.2 L1043.7 733.6 L1050.7 733.4 L1057.7 733.7 L1064.5 734.4 L1071.1 735.6 L1077.5 737.2 L1083.6 739.2 L1089.4 741.5 L1094.9 744.0 L1100.1 746.8 L1105.0 749.7 L1109.6 752.7 L1114.0 755.7 L1118.2 758.8 L1122.2 761.9 L1126.1 765.0 L1129.9 768.1 L1133.6 771.2 L1137.2 774.3 L1140.8 777.3 L1144.3 780.5 L1147.6 783.6 L1150.8 786.9 L1153.8 790.2 L1156.5 793.5 L1158.9 797.0 L1161.0 800.5 L1162.8 804.1 L1164.0 807.8 L1164.9 811.5 L1165.3 815.3 L1165.3 819.0 L1164.8 822.7 L1164.0 826.4 L1162.8 830.0 Z" fill="none" stroke="#C6A75E" stroke-width="1.10" opacity="0.26"/>
  <path d="M1195.1 830.0 L1193.5 834.4 L1191.8 838.7 L1190.1 842.9 L1188.4 847.1 L1186.8 851.3 L1185.3 855.5 L1184.0 859.7 L1182.7 864.0 L1181.4 868.4 L1180.2 872.8 L1178.9 877.3 L1177.5 882.0 L1175.8 886.6 L1173.8 891.3 L1171.4 896.0 L1168.4 900.6 L1164.9 905.0 L1160.8 909.3 L1156.0 913.3 L1150.6 917.0 L1144.5 920.3 L1137.9 923.2 L1130.7 925.6 L1123.1 927.5 L1115.2 928.9 L1107.0 929.8 L1098.6 930.3 L1090.2 930.3 L1081.9 929.9 L1073.7 929.2 L1065.8 928.4 L1058.0 927.3 L1050.6 926.2 L1043.4 925.1 L1036.5 924.1 L1029.8 923.3 L1023.2 922.6 L1016.8 922.2 L1010.4 922.0 L1003.9 922.1 L997.3 922.4 L990.5 922.9 L983.4 923.5 L976.1 924.2 L968.6 925.0 L960.7 925.7 L952.5 926.3 L944.2 926.6 L935.7 926.7 L927.1 926.5 L918.5 925.9 L910.1 924.9 L901.8 923.5 L893.7 921.6 L886.0 919.3 L878.7 916.5 L871.9 913.4 L865.6 910.0 L859.7 906.2 L854.4 902.2 L849.6 897.9 L845.3 893.5 L841.4 888.9 L837.9 884.3 L834.7 879.5 L831.9 874.7 L829.4 869.8 L827.2 864.9 L825.2 860.0 L823.5 855.1 L822.2 850.1 L821.2 845.1 L820.6 840.0 L820.4 835.0 L820.7 830.0 L821.6 825.0 L823.1 820.1 L825.2 815.2 L828.0 810.5 L831.5 806.0 L835.7 801.6 L840.5 797.5 L846.0 793.6 L852.0 790.1 L858.5 786.8 L865.3 783.9 L872.3 781.3 L879.5 778.9 L886.6 776.8 L893.7 774.9 L900.5 773.2 L907.1 771.5 L913.3 769.9 L919.1 768.2 L924.5 766.4 L929.5 764.4 L934.2 762.2 L938.6 759.7 L942.7 756.9 L946.7 753.8 L950.7 750.4 L954.7 746.8 L959.0 742.9 L963.5 738.9 L968.5 734.8 L973.8 730.7 L979.6 726.7 L985.9 722.9 L992.8 719.3 L1000.1 716.1 L1007.8 713.4 L1015.8 711.1 L1024.2 709.4 L1032.8 708.3 L1041.4 707.8 L1050.1 707.9 L1058.6 708.6 L1067.0 709.8 L1075.1 711.5 L1083.0 713.6 L1090.6 716.2 L1097.8 719.0 L1104.6 722.1 L1111.2 725.3 L1117.4 728.7 L1123.4 732.2 L1129.2 735.7 L1134.8 739.2 L1140.3 742.7 L1145.7 746.3 L1150.9 749.8 L1156.1 753.3 L1161.2 756.9 L1166.1 760.5 L1170.9 764.2 L1175.5 768.0 L1179.9 771.9 L1183.9 775.9 L1187.5 780.1 L1190.7 784.4 L1193.5 788.8 L1195.7 793.3 L1197.3 797.9 L1198.4 802.5 L1198.9 807.2 L1199.0 811.8 L1198.5 816.5 L1197.7 821.0 L1196.5 825.6 L1195.1 830.0 Z" fill="none" stroke="#C6A75E" stroke-width="1.00" opacity="0.22"/>
  <path d="M1227.1 830.0 L1225.9 835.2 L1224.8 840.3 L1223.8 845.4 L1222.9 850.6 L1222.2 855.8 L1221.6 861.0 L1221.0 866.4 L1220.4 871.9 L1219.7 877.4 L1218.8 883.1 L1217.5 888.8 L1215.8 894.6 L1213.5 900.3 L1210.6 906.0 L1206.9 911.5 L1202.5 916.8 L1197.2 921.8 L1191.0 926.4 L1184.1 930.5 L1176.4 934.2 L1168.0 937.3 L1159.0 939.9 L1149.6 941.9 L1139.8 943.3 L1129.9 944.2 L1119.8 944.6 L1109.8 944.5 L1100.0 944.2 L1090.4 943.6 L1081.1 942.8 L1072.1 942.0 L1063.5 941.2 L1055.1 940.5 L1047.1 940.0 L1039.2 939.8 L1031.5 939.9 L1023.8 940.3 L1016.1 940.9 L1008.3 941.9 L1000.2 943.0 L991.8 944.4 L983.2 945.8 L974.1 947.3 L964.8 948.7 L955.1 949.9 L945.1 950.8 L934.9 951.4 L924.6 951.6 L914.3 951.3 L904.0 950.6 L893.9 949.3 L884.0 947.4 L874.5 945.0 L865.4 942.1 L856.8 938.7 L848.7 934.9 L841.2 930.7 L834.2 926.2 L827.8 921.4 L821.8 916.4 L816.4 911.2 L811.4 905.8 L806.7 900.3 L802.5 894.8 L798.6 889.2 L795.0 883.5 L791.7 877.7 L788.8 871.9 L786.2 866.0 L784.1 860.1 L782.5 854.1 L781.5 848.1 L781.1 842.0 L781.4 836.0 L782.5 830.0 L784.4 824.1 L787.1 818.3 L790.8 812.6 L795.3 807.2 L800.6 802.0 L806.7 797.1 L813.4 792.6 L820.7 788.4 L828.5 784.5 L836.5 781.0 L844.7 777.8 L852.9 774.9 L860.9 772.2 L868.7 769.7 L876.1 767.3 L883.0 764.9 L889.5 762.4 L895.4 759.8 L900.8 757.0 L905.8 753.9 L910.4 750.5 L914.7 746.8 L918.9 742.7 L923.0 738.3 L927.2 733.5 L931.6 728.6 L936.4 723.4 L941.7 718.2 L947.4 712.9 L953.8 707.8 L960.9 702.9 L968.6 698.4 L976.8 694.3 L985.7 690.7 L995.1 687.7 L1004.8 685.4 L1014.9 683.7 L1025.1 682.8 L1035.5 682.6 L1045.7 683.0 L1055.9 684.1 L1065.8 685.8 L1075.5 688.0 L1084.9 690.6 L1093.9 693.6 L1102.5 696.8 L1110.9 700.3 L1118.9 703.9 L1126.7 707.6 L1134.2 711.3 L1141.5 715.1 L1148.8 718.9 L1155.8 722.6 L1162.8 726.4 L1169.7 730.2 L1176.5 734.1 L1183.1 738.1 L1189.6 742.2 L1195.8 746.4 L1201.7 750.8 L1207.2 755.4 L1212.2 760.2 L1216.7 765.1 L1220.7 770.2 L1224.0 775.5 L1226.6 780.9 L1228.7 786.4 L1230.0 792.0 L1230.8 797.5 L1231.1 803.1 L1230.8 808.6 L1230.2 814.1 L1229.3 819.5 L1228.3 824.8 L1227.1 830.0 Z" fill="none" stroke="#C6A75E" stroke-width="0.90" opacity="0.17"/>
  <path d="M1260.5 830.0 L1260.5 836.0 L1260.5 842.1 L1260.7 848.2 L1261.1 854.5 L1261.4 860.8 L1261.8 867.2 L1261.9 873.8 L1261.8 880.5 L1261.2 887.3 L1260.1 894.1 L1258.2 900.9 L1255.5 907.7 L1251.9 914.3 L1247.2 920.6 L1241.6 926.6 L1234.8 932.2 L1227.1 937.3 L1218.4 941.8 L1208.9 945.7 L1198.6 949.0 L1187.8 951.7 L1176.5 953.7 L1165.0 955.2 L1153.4 956.1 L1141.8 956.5 L1130.3 956.6 L1119.2 956.5 L1108.4 956.1 L1098.0 955.8 L1087.9 955.5 L1078.3 955.3 L1069.0 955.4 L1060.0 955.8 L1051.1 956.6 L1042.4 957.7 L1033.5 959.1 L1024.6 960.9 L1015.4 962.9 L1005.8 965.1 L995.9 967.5 L985.6 969.8 L974.9 972.0 L963.7 974.0 L952.2 975.7 L940.4 976.9 L928.5 977.7 L916.4 977.9 L904.3 977.5 L892.4 976.4 L880.7 974.7 L869.4 972.4 L858.4 969.5 L848.0 966.0 L838.0 962.0 L828.7 957.5 L819.9 952.6 L811.6 947.4 L803.9 941.9 L796.6 936.2 L789.9 930.3 L783.5 924.3 L777.5 918.1 L771.9 911.8 L766.7 905.4 L761.8 899.0 L757.4 892.4 L753.4 885.7 L750.0 878.9 L747.1 872.0 L745.0 865.1 L743.6 858.1 L743.1 851.0 L743.5 843.9 L745.0 836.9 L747.5 830.0 L751.0 823.2 L755.6 816.7 L761.2 810.4 L767.7 804.4 L775.0 798.8 L783.0 793.5 L791.5 788.6 L800.3 784.1 L809.3 779.9 L818.2 776.1 L827.0 772.5 L835.5 769.1 L843.4 765.8 L850.9 762.6 L857.7 759.2 L863.9 755.8 L869.5 752.0 L874.5 748.0 L879.0 743.6 L883.2 738.9 L887.2 733.7 L891.2 728.1 L895.2 722.3 L899.5 716.1 L904.3 709.8 L909.6 703.3 L915.6 696.9 L922.4 690.7 L929.9 684.7 L938.3 679.0 L947.4 673.9 L957.2 669.5 L967.7 665.7 L978.8 662.6 L990.3 660.3 L1002.1 658.9 L1014.0 658.2 L1026.0 658.4 L1037.9 659.2 L1049.7 660.7 L1061.2 662.8 L1072.4 665.3 L1083.2 668.2 L1093.8 671.5 L1104.0 675.0 L1113.8 678.6 L1123.5 682.3 L1132.9 686.1 L1142.1 689.9 L1151.1 693.7 L1160.1 697.6 L1168.9 701.4 L1177.7 705.4 L1186.3 709.4 L1194.7 713.6 L1203.0 717.9 L1210.9 722.4 L1218.5 727.2 L1225.7 732.2 L1232.3 737.5 L1238.3 743.0 L1243.7 748.7 L1248.3 754.7 L1252.2 760.8 L1255.4 767.1 L1257.8 773.5 L1259.6 779.9 L1260.8 786.4 L1261.4 792.8 L1261.7 799.2 L1261.6 805.5 L1261.4 811.7 L1261.1 817.9 L1260.8 823.9 L1260.5 830.0 Z" fill="none" stroke="#9C7C3C" stroke-width="0.80" opacity="0.13"/>
  <path d="M1297.4 830.0 L1298.9 837.0 L1300.5 844.1 L1302.1 851.4 L1303.7 858.8 L1305.0 866.3 L1305.9 874.0 L1306.3 881.9 L1305.9 889.7 L1304.6 897.6 L1302.3 905.4 L1298.9 913.1 L1294.3 920.5 L1288.3 927.5 L1281.2 934.1 L1272.8 940.2 L1263.2 945.7 L1252.6 950.5 L1241.2 954.6 L1229.0 958.1 L1216.4 960.8 L1203.4 963.0 L1190.2 964.6 L1177.1 965.6 L1164.2 966.3 L1151.6 966.8 L1139.4 967.1 L1127.7 967.3 L1116.5 967.7 L1105.7 968.2 L1095.3 969.1 L1085.3 970.3 L1075.5 971.9 L1065.8 973.9 L1056.0 976.3 L1046.1 979.1 L1035.9 982.1 L1025.4 985.4 L1014.5 988.7 L1003.0 992.0 L991.1 995.2 L978.6 998.1 L965.7 1000.7 L952.5 1002.7 L938.9 1004.2 L925.2 1005.0 L911.5 1005.1 L897.8 1004.5 L884.2 1003.1 L871.0 1001.0 L858.2 998.2 L845.8 994.7 L833.9 990.6 L822.6 986.0 L811.8 981.0 L801.6 975.5 L791.9 969.8 L782.7 963.7 L773.9 957.4 L765.6 951.0 L757.7 944.3 L750.2 937.5 L743.1 930.6 L736.4 923.5 L730.2 916.3 L724.5 908.9 L719.5 901.4 L715.1 893.7 L711.6 885.9 L709.0 877.9 L707.5 869.9 L707.0 861.8 L707.8 853.7 L709.8 845.6 L713.1 837.7 L717.6 830.0 L723.2 822.5 L729.9 815.4 L737.5 808.6 L746.0 802.2 L754.9 796.2 L764.3 790.6 L773.8 785.4 L783.3 780.6 L792.6 776.0 L801.4 771.6 L809.7 767.4 L817.4 763.2 L824.2 758.9 L830.4 754.4 L835.8 749.7 L840.5 744.6 L844.7 739.2 L848.5 733.4 L852.0 727.1 L855.5 720.4 L859.1 713.3 L863.1 706.0 L867.5 698.4 L872.7 690.7 L878.6 683.1 L885.5 675.6 L893.3 668.5 L902.2 661.8 L911.9 655.7 L922.6 650.2 L934.2 645.5 L946.4 641.7 L959.2 638.7 L972.4 636.6 L985.9 635.5 L999.6 635.1 L1013.2 635.6 L1026.7 636.7 L1040.1 638.5 L1053.1 640.8 L1065.9 643.5 L1078.3 646.6 L1090.4 649.9 L1102.2 653.3 L1113.8 656.9 L1125.1 660.5 L1136.2 664.1 L1147.2 667.8 L1158.1 671.5 L1168.9 675.3 L1179.6 679.1 L1190.1 683.1 L1200.5 687.3 L1210.7 691.7 L1220.5 696.4 L1229.9 701.4 L1238.8 706.7 L1247.2 712.3 L1254.9 718.3 L1261.8 724.6 L1268.0 731.2 L1273.3 738.0 L1277.8 745.0 L1281.6 752.1 L1284.6 759.3 L1287.0 766.6 L1288.8 773.8 L1290.2 781.1 L1291.3 788.2 L1292.2 795.3 L1293.1 802.3 L1293.9 809.2 L1294.9 816.1 L1296.1 823.1 L1297.4 830.0 Z" fill="none" stroke="#9C7C3C" stroke-width="0.70" opacity="0.09"/>
  <path d="M1361.2 430.0 L1361.0 431.1 L1360.7 432.2 L1360.3 433.3 L1359.8 434.3 L1359.2 435.4 L1358.5 436.3 L1357.8 437.2 L1357.0 438.1 L1356.3 439.0 L1355.5 439.8 L1354.7 440.6 L1354.0 441.4 L1353.2 442.1 L1352.4 442.9 L1351.6 443.6 L1350.9 444.3 L1350.1 445.0 L1349.3 445.6 L1348.5 446.3 L1347.6 446.9 L1346.7 447.5 L1345.8 448.0 L1344.9 448.5 L1343.9 448.9 L1342.9 449.3 L1341.9 449.6 L1340.8 449.9 L1339.8 450.1 L1338.7 450.2 L1337.6 450.3 L1336.6 450.4 L1335.5 450.4 L1334.5 450.4 L1333.5 450.4 L1332.5 450.4 L1331.5 450.4 L1330.5 450.4 L1329.5 450.5 L1328.5 450.5 L1327.5 450.6 L1326.5 450.7 L1325.4 450.8 L1324.3 450.9 L1323.2 451.0 L1322.1 451.1 L1320.9 451.1 L1319.7 451.1 L1318.5 451.1 L1317.3 451.0 L1316.1 450.7 L1315.0 450.5 L1313.9 450.1 L1312.8 449.6 L1311.8 449.0 L1310.9 448.3 L1310.1 447.5 L1309.4 446.7 L1308.8 445.8 L1308.3 444.8 L1308.0 443.8 L1307.7 442.8 L1307.5 441.8 L1307.3 440.8 L1307.3 439.8 L1307.2 438.8 L1307.2 437.8 L1307.2 436.9 L1307.1 436.0 L1307.0 435.1 L1306.9 434.2 L1306.8 433.4 L1306.6 432.6 L1306.3 431.7 L1306.0 430.9 L1305.7 430.0 L1305.3 429.1 L1305.0 428.2 L1304.6 427.2 L1304.3 426.2 L1304.0 425.2 L1303.7 424.2 L1303.6 423.1 L1303.5 422.0 L1303.5 420.9 L1303.7 419.9 L1303.9 418.8 L1304.3 417.8 L1304.8 416.8 L1305.3 415.8 L1306.0 415.0 L1306.8 414.1 L1307.6 413.3 L1308.6 412.6 L1309.5 411.9 L1310.5 411.3 L1311.6 410.8 L1312.6 410.3 L1313.7 409.8 L1314.8 409.3 L1315.9 408.9 L1317.0 408.6 L1318.1 408.2 L1319.2 407.9 L1320.4 407.6 L1321.5 407.3 L1322.6 407.1 L1323.7 407.0 L1324.9 406.8 L1326.0 406.8 L1327.2 406.8 L1328.3 406.9 L1329.4 407.1 L1330.6 407.3 L1331.6 407.6 L1332.7 408.0 L1333.7 408.5 L1334.6 409.0 L1335.5 409.6 L1336.4 410.2 L1337.2 410.9 L1337.9 411.6 L1338.6 412.3 L1339.3 412.9 L1340.0 413.5 L1340.6 414.1 L1341.2 414.7 L1341.9 415.2 L1342.6 415.7 L1343.3 416.1 L1344.1 416.4 L1345.0 416.8 L1345.9 417.1 L1346.9 417.4 L1348.0 417.7 L1349.1 418.0 L1350.3 418.4 L1351.5 418.8 L1352.7 419.2 L1353.9 419.7 L1355.1 420.3 L1356.3 421.0 L1357.3 421.8 L1358.3 422.6 L1359.1 423.5 L1359.8 424.5 L1360.4 425.6 L1360.8 426.6 L1361.1 427.7 L1361.2 428.9 L1361.2 430.0 Z" fill="none" stroke="#E6C77E" stroke-width="1.37" opacity="0.31"/>
  <path d="M1391.3 430.0 L1390.6 432.2 L1389.8 434.3 L1388.8 436.4 L1387.7 438.4 L1386.4 440.4 L1385.2 442.2 L1383.8 444.0 L1382.5 445.8 L1381.2 447.5 L1379.8 449.2 L1378.5 450.8 L1377.1 452.4 L1375.8 453.9 L1374.4 455.5 L1373.0 457.0 L1371.5 458.4 L1370.0 459.8 L1368.5 461.2 L1366.8 462.5 L1365.1 463.7 L1363.3 464.8 L1361.4 465.7 L1359.5 466.6 L1357.5 467.4 L1355.4 468.0 L1353.4 468.6 L1351.3 469.0 L1349.2 469.4 L1347.1 469.6 L1345.0 469.9 L1342.9 470.0 L1340.9 470.2 L1338.9 470.4 L1336.9 470.5 L1335.0 470.7 L1333.0 471.0 L1331.0 471.3 L1329.0 471.6 L1326.9 472.0 L1324.8 472.4 L1322.7 472.8 L1320.5 473.2 L1318.2 473.5 L1315.9 473.8 L1313.5 473.9 L1311.1 474.0 L1308.7 473.8 L1306.3 473.5 L1303.9 473.1 L1301.7 472.4 L1299.5 471.5 L1297.5 470.4 L1295.6 469.1 L1294.0 467.6 L1292.5 466.0 L1291.2 464.3 L1290.1 462.4 L1289.2 460.4 L1288.4 458.5 L1287.8 456.4 L1287.4 454.4 L1287.0 452.5 L1286.8 450.5 L1286.5 448.7 L1286.2 446.8 L1285.9 445.1 L1285.5 443.4 L1285.1 441.7 L1284.5 440.1 L1283.9 438.5 L1283.1 436.8 L1282.3 435.2 L1281.4 433.5 L1280.4 431.8 L1279.5 430.0 L1278.5 428.1 L1277.6 426.2 L1276.8 424.2 L1276.2 422.1 L1275.6 420.0 L1275.3 417.9 L1275.2 415.7 L1275.3 413.5 L1275.6 411.4 L1276.2 409.3 L1277.0 407.3 L1278.0 405.3 L1279.2 403.5 L1280.7 401.7 L1282.2 400.0 L1283.9 398.5 L1285.7 397.0 L1287.6 395.6 L1289.6 394.4 L1291.6 393.2 L1293.6 392.0 L1295.7 391.0 L1297.8 390.0 L1299.9 389.1 L1302.1 388.2 L1304.2 387.4 L1306.4 386.6 L1308.6 385.9 L1310.8 385.4 L1313.0 384.9 L1315.3 384.5 L1317.6 384.2 L1319.9 384.1 L1322.2 384.2 L1324.4 384.4 L1326.7 384.8 L1328.9 385.3 L1331.1 386.0 L1333.1 386.8 L1335.1 387.8 L1337.0 388.9 L1338.8 390.0 L1340.5 391.2 L1342.1 392.5 L1343.7 393.7 L1345.1 394.9 L1346.5 396.0 L1347.9 397.1 L1349.3 398.0 L1350.8 398.9 L1352.3 399.7 L1353.9 400.3 L1355.6 400.9 L1357.4 401.4 L1359.4 401.8 L1361.5 402.2 L1363.7 402.6 L1366.1 403.1 L1368.5 403.6 L1371.0 404.2 L1373.6 405.0 L1376.1 405.9 L1378.6 406.9 L1380.9 408.2 L1383.1 409.6 L1385.2 411.1 L1387.0 412.9 L1388.5 414.7 L1389.8 416.7 L1390.8 418.8 L1391.4 421.0 L1391.8 423.3 L1391.9 425.5 L1391.7 427.8 L1391.3 430.0 Z" fill="none" stroke="#E6C77E" stroke-width="1.23" opacity="0.27"/>
  <path d="M1419.4 430.0 L1418.2 433.2 L1416.8 436.3 L1415.3 439.3 L1413.8 442.2 L1412.1 445.1 L1410.4 447.8 L1408.8 450.5 L1407.1 453.2 L1405.4 455.8 L1403.7 458.3 L1401.9 460.8 L1400.1 463.3 L1398.3 465.7 L1396.3 468.1 L1394.3 470.4 L1392.2 472.6 L1389.9 474.6 L1387.5 476.6 L1384.9 478.4 L1382.2 480.1 L1379.4 481.6 L1376.5 482.9 L1373.6 484.1 L1370.5 485.1 L1367.4 486.0 L1364.3 486.7 L1361.3 487.4 L1358.2 487.9 L1355.2 488.5 L1352.2 489.0 L1349.2 489.5 L1346.3 490.0 L1343.4 490.6 L1340.5 491.2 L1337.5 492.0 L1334.6 492.7 L1331.5 493.6 L1328.4 494.4 L1325.2 495.3 L1322.0 496.1 L1318.6 496.8 L1315.1 497.4 L1311.6 497.9 L1308.0 498.2 L1304.4 498.2 L1300.8 497.9 L1297.2 497.3 L1293.8 496.5 L1290.5 495.3 L1287.4 493.8 L1284.5 491.9 L1281.8 489.8 L1279.5 487.5 L1277.3 485.0 L1275.5 482.3 L1273.9 479.4 L1272.6 476.5 L1271.5 473.6 L1270.6 470.7 L1269.7 467.8 L1269.0 465.0 L1268.3 462.3 L1267.6 459.6 L1266.8 457.1 L1265.9 454.7 L1264.8 452.3 L1263.7 449.9 L1262.4 447.6 L1260.9 445.3 L1259.3 443.0 L1257.6 440.6 L1255.8 438.1 L1254.1 435.5 L1252.3 432.8 L1250.7 430.0 L1249.2 427.1 L1247.9 424.0 L1246.8 420.9 L1246.1 417.7 L1245.6 414.5 L1245.5 411.3 L1245.8 408.0 L1246.4 404.9 L1247.3 401.7 L1248.6 398.7 L1250.2 395.8 L1252.1 393.0 L1254.2 390.4 L1256.5 387.9 L1259.0 385.5 L1261.7 383.2 L1264.4 381.1 L1267.2 379.1 L1270.1 377.2 L1273.0 375.4 L1276.0 373.6 L1279.0 372.0 L1282.0 370.4 L1285.1 368.9 L1288.3 367.6 L1291.4 366.3 L1294.7 365.2 L1298.0 364.2 L1301.3 363.4 L1304.7 362.8 L1308.2 362.5 L1311.6 362.4 L1315.1 362.5 L1318.5 362.9 L1321.9 363.5 L1325.2 364.4 L1328.4 365.5 L1331.5 366.7 L1334.5 368.2 L1337.3 369.7 L1340.0 371.4 L1342.6 373.0 L1345.0 374.7 L1347.4 376.3 L1349.7 377.8 L1351.9 379.1 L1354.2 380.3 L1356.5 381.4 L1358.9 382.2 L1361.4 383.0 L1364.1 383.5 L1367.0 384.0 L1370.1 384.4 L1373.4 384.7 L1376.8 385.1 L1380.5 385.5 L1384.3 386.0 L1388.1 386.7 L1392.0 387.5 L1395.9 388.6 L1399.7 390.0 L1403.4 391.6 L1406.8 393.5 L1410.0 395.7 L1412.9 398.1 L1415.3 400.8 L1417.4 403.7 L1419.1 406.8 L1420.3 410.0 L1421.1 413.3 L1421.4 416.6 L1421.4 420.0 L1421.0 423.4 L1420.3 426.7 L1419.4 430.0 Z" fill="none" stroke="#C6A75E" stroke-width="1.10" opacity="0.22"/>
  <path d="M1445.4 430.0 L1443.9 434.1 L1442.3 438.1 L1440.5 442.1 L1438.8 445.9 L1437.0 449.6 L1435.2 453.3 L1433.4 457.0 L1431.5 460.5 L1429.6 464.1 L1427.6 467.5 L1425.5 470.9 L1423.3 474.3 L1420.9 477.5 L1418.3 480.7 L1415.5 483.6 L1412.5 486.5 L1409.3 489.1 L1406.0 491.6 L1402.4 493.8 L1398.7 495.9 L1394.9 497.7 L1390.9 499.3 L1387.0 500.8 L1382.9 502.1 L1378.9 503.2 L1375.0 504.3 L1371.0 505.3 L1367.1 506.3 L1363.3 507.3 L1359.5 508.4 L1355.7 509.5 L1351.9 510.8 L1348.1 512.1 L1344.3 513.5 L1340.3 514.9 L1336.3 516.4 L1332.1 517.9 L1327.8 519.3 L1323.4 520.6 L1318.8 521.7 L1314.2 522.6 L1309.4 523.2 L1304.6 523.5 L1299.8 523.3 L1295.1 522.8 L1290.5 521.8 L1286.0 520.4 L1281.7 518.6 L1277.8 516.3 L1274.1 513.7 L1270.7 510.7 L1267.7 507.5 L1265.0 504.0 L1262.6 500.3 L1260.5 496.6 L1258.7 492.9 L1257.1 489.1 L1255.7 485.4 L1254.3 481.8 L1252.9 478.4 L1251.5 475.0 L1250.0 471.8 L1248.4 468.7 L1246.6 465.8 L1244.6 462.8 L1242.4 460.0 L1240.0 457.1 L1237.4 454.1 L1234.8 451.1 L1232.0 448.0 L1229.2 444.7 L1226.5 441.3 L1223.9 437.7 L1221.6 433.9 L1219.5 430.0 L1217.7 425.9 L1216.3 421.8 L1215.4 417.5 L1214.9 413.2 L1214.9 408.9 L1215.4 404.6 L1216.4 400.4 L1217.8 396.2 L1219.6 392.2 L1221.7 388.4 L1224.2 384.7 L1227.0 381.1 L1230.0 377.7 L1233.2 374.5 L1236.5 371.4 L1240.0 368.4 L1243.5 365.5 L1247.1 362.8 L1250.8 360.2 L1254.6 357.7 L1258.4 355.3 L1262.3 353.0 L1266.3 350.8 L1270.4 348.8 L1274.6 347.1 L1278.8 345.5 L1283.2 344.2 L1287.7 343.1 L1292.3 342.4 L1296.9 342.0 L1301.5 341.9 L1306.1 342.1 L1310.7 342.7 L1315.2 343.7 L1319.6 344.9 L1323.9 346.4 L1328.0 348.0 L1331.9 349.9 L1335.7 351.8 L1339.3 353.7 L1342.7 355.6 L1346.0 357.5 L1349.2 359.1 L1352.4 360.6 L1355.6 361.9 L1358.9 362.9 L1362.2 363.8 L1365.8 364.3 L1369.5 364.7 L1373.5 364.9 L1377.7 365.1 L1382.2 365.1 L1386.9 365.2 L1391.9 365.4 L1397.0 365.7 L1402.3 366.3 L1407.6 367.1 L1412.9 368.2 L1418.1 369.7 L1423.1 371.6 L1427.8 373.9 L1432.2 376.5 L1436.2 379.6 L1439.7 383.0 L1442.7 386.7 L1445.1 390.6 L1447.0 394.8 L1448.4 399.1 L1449.2 403.6 L1449.5 408.1 L1449.4 412.6 L1448.8 417.0 L1447.9 421.4 L1446.8 425.8 L1445.4 430.0 Z" fill="none" stroke="#C6A75E" stroke-width="0.97" opacity="0.17"/>
  <path d="M1470.1 430.0 L1468.6 435.0 L1467.0 439.9 L1465.3 444.8 L1463.7 449.5 L1461.9 454.2 L1460.2 458.9 L1458.3 463.5 L1456.3 468.0 L1454.1 472.4 L1451.8 476.8 L1449.2 481.1 L1446.3 485.2 L1443.2 489.2 L1439.8 493.0 L1436.1 496.6 L1432.2 499.9 L1428.0 503.0 L1423.5 505.9 L1419.0 508.5 L1414.3 510.8 L1409.5 513.0 L1404.7 514.9 L1399.8 516.8 L1395.0 518.5 L1390.3 520.2 L1385.6 521.8 L1381.0 523.5 L1376.4 525.3 L1371.8 527.2 L1367.3 529.1 L1362.7 531.2 L1358.1 533.4 L1353.3 535.6 L1348.4 537.9 L1343.4 540.1 L1338.2 542.3 L1332.8 544.3 L1327.2 546.0 L1321.4 547.5 L1315.6 548.6 L1309.6 549.2 L1303.6 549.3 L1297.7 548.9 L1291.9 547.9 L1286.2 546.4 L1280.8 544.3 L1275.6 541.7 L1270.8 538.6 L1266.4 535.1 L1262.3 531.2 L1258.7 527.1 L1255.4 522.7 L1252.4 518.3 L1249.8 513.8 L1247.3 509.3 L1245.1 504.9 L1242.9 500.7 L1240.7 496.6 L1238.4 492.7 L1236.1 488.9 L1233.5 485.4 L1230.7 481.9 L1227.7 478.6 L1224.4 475.3 L1220.9 471.9 L1217.2 468.6 L1213.4 465.1 L1209.4 461.4 L1205.5 457.6 L1201.7 453.6 L1198.0 449.3 L1194.6 444.8 L1191.5 440.0 L1188.9 435.1 L1186.8 430.0 L1185.2 424.8 L1184.2 419.4 L1183.8 414.0 L1184.0 408.7 L1184.7 403.3 L1186.0 398.1 L1187.9 392.9 L1190.1 387.9 L1192.8 383.1 L1195.8 378.4 L1199.2 373.9 L1202.7 369.6 L1206.5 365.4 L1210.3 361.3 L1214.4 357.4 L1218.5 353.7 L1222.7 350.0 L1227.1 346.5 L1231.5 343.1 L1236.1 339.9 L1240.8 336.9 L1245.7 334.0 L1250.7 331.4 L1255.9 329.1 L1261.2 327.1 L1266.7 325.5 L1272.4 324.3 L1278.1 323.4 L1283.9 323.0 L1289.8 323.0 L1295.6 323.5 L1301.3 324.3 L1306.9 325.6 L1312.4 327.1 L1317.7 328.8 L1322.8 330.8 L1327.6 332.8 L1332.3 334.9 L1336.8 336.9 L1341.1 338.8 L1345.3 340.5 L1349.5 341.9 L1353.6 343.1 L1357.8 343.9 L1362.2 344.5 L1366.7 344.7 L1371.5 344.7 L1376.6 344.5 L1382.0 344.2 L1387.6 343.8 L1393.6 343.4 L1399.9 343.1 L1406.4 343.1 L1413.0 343.3 L1419.7 343.9 L1426.4 344.9 L1433.0 346.4 L1439.4 348.4 L1445.5 351.0 L1451.1 354.0 L1456.3 357.5 L1460.9 361.5 L1464.9 365.9 L1468.3 370.7 L1471.0 375.8 L1473.0 381.1 L1474.4 386.6 L1475.3 392.1 L1475.6 397.7 L1475.4 403.3 L1474.9 408.8 L1474.0 414.3 L1472.9 419.6 L1471.5 424.9 L1470.1 430.0 Z" fill="none" stroke="#9C7C3C" stroke-width="0.83" opacity="0.12"/>
  <path d="M1494.4 430.0 L1493.2 435.9 L1491.9 441.7 L1490.5 447.5 L1489.1 453.2 L1487.5 458.9 L1485.7 464.5 L1483.7 470.1 L1481.4 475.5 L1478.8 480.9 L1475.8 486.1 L1472.5 491.1 L1468.8 495.9 L1464.8 500.5 L1460.4 504.8 L1455.7 508.8 L1450.7 512.6 L1445.5 516.1 L1440.1 519.3 L1434.7 522.3 L1429.1 525.1 L1423.6 527.7 L1418.1 530.3 L1412.7 532.7 L1407.3 535.2 L1402.0 537.8 L1396.8 540.4 L1391.6 543.1 L1386.5 546.0 L1381.2 549.0 L1375.9 552.1 L1370.5 555.3 L1364.9 558.5 L1359.1 561.6 L1353.0 564.6 L1346.7 567.4 L1340.2 570.0 L1333.4 572.1 L1326.5 573.7 L1319.5 574.8 L1312.3 575.3 L1305.2 575.1 L1298.2 574.2 L1291.3 572.6 L1284.6 570.4 L1278.3 567.5 L1272.3 564.0 L1266.7 560.1 L1261.5 555.7 L1256.8 551.0 L1252.4 546.1 L1248.4 541.0 L1244.8 535.9 L1241.4 530.8 L1238.1 525.9 L1235.0 521.2 L1231.8 516.6 L1228.5 512.3 L1225.1 508.2 L1221.5 504.3 L1217.6 500.5 L1213.4 496.9 L1208.9 493.4 L1204.1 489.8 L1199.1 486.1 L1194.0 482.3 L1188.7 478.3 L1183.5 474.1 L1178.3 469.5 L1173.4 464.7 L1168.9 459.6 L1164.7 454.1 L1161.1 448.4 L1158.0 442.5 L1155.6 436.3 L1153.9 430.0 L1152.9 423.6 L1152.6 417.1 L1153.0 410.7 L1154.1 404.3 L1155.7 398.0 L1157.9 391.8 L1160.6 385.8 L1163.7 380.0 L1167.1 374.3 L1170.8 368.8 L1174.7 363.4 L1178.8 358.2 L1183.1 353.2 L1187.6 348.3 L1192.1 343.5 L1196.9 338.9 L1201.8 334.4 L1206.9 330.1 L1212.2 326.1 L1217.7 322.3 L1223.4 318.8 L1229.5 315.6 L1235.7 312.8 L1242.2 310.5 L1248.8 308.6 L1255.7 307.2 L1262.6 306.4 L1269.7 306.0 L1276.7 306.2 L1283.7 306.8 L1290.5 307.9 L1297.2 309.3 L1303.7 311.0 L1310.0 312.9 L1316.0 315.0 L1321.8 317.0 L1327.3 318.9 L1332.7 320.7 L1337.9 322.2 L1343.0 323.4 L1348.1 324.2 L1353.3 324.7 L1358.6 324.7 L1364.1 324.4 L1369.9 323.9 L1376.1 323.0 L1382.6 322.0 L1389.4 321.0 L1396.6 319.9 L1404.2 319.1 L1412.0 318.4 L1420.0 318.2 L1428.1 318.4 L1436.2 319.2 L1444.2 320.5 L1451.9 322.5 L1459.3 325.1 L1466.3 328.4 L1472.7 332.3 L1478.5 336.8 L1483.6 341.9 L1488.0 347.4 L1491.6 353.3 L1494.5 359.5 L1496.7 365.9 L1498.3 372.5 L1499.2 379.1 L1499.6 385.8 L1499.6 392.4 L1499.2 398.9 L1498.6 405.4 L1497.7 411.7 L1496.7 417.9 L1495.6 424.0 L1494.4 430.0 Z" fill="none" stroke="#9C7C3C" stroke-width="0.70" opacity="0.07"/>
</svg>
