<svg xmlns="http://www.w3.org/2000/svg" viewBox="0 0 1600 140" fill="none" stroke-linecap="round" stroke-linejoin="round">
  <path d="M0 70.0 L10 73.1 L20 76.1 L30 79.1 L40 82.0 L50 84.8 L60 87.4 L70 89.8 L80 92.1 L90 94.1 L100 96.0 L110 97.5 L120 98.8 L130 99.9 L140 100.7 L150 101.2 L160 101.5 L170 101.5 L180 101.3 L190 100.9 L200 100.3 L210 99.4 L220 98.4 L230 97.3 L240 96.0 L250 94.7 L260 93.2 L270 91.8 L280 90.3 L290 88.8 L300 87.3 L310 85.8 L320 84.5 L330 83.2 L340 82.0 L350 80.9 L360 79.9 L370 79.1 L380 78.3 L390 77.7 L400 77.2 L410 76.8 L420 76.6 L430 76.4 L440 76.3 L450 76.2 L460 76.2 L470 76.2 L480 76.2 L490 76.2 L500 76.2 L510 76.1 L520 75.9 L530 75.7 L540 75.3 L550 74.8 L560 74.2 L570 73.4 L580 72.5 L590 71.4 L600 70.2 L610 68.8 L620 67.2 L630 65.6 L640 63.7 L650 61.8 L660 59.8 L670 57.7 L680 55.5 L690 53.3 L700 51.1 L710 48.9 L720 46.7 L730 44.7 L740 42.7 L750 40.8 L760 39.2 L770 37.6 L780 36.3 L790 35.3 L800 34.4 L810 33.8 L820 33.5 L830 33.5 L840 33.7 L850 34.2 L860 35.1 L870 36.2 L880 37.5 L890 39.1 L900 41.0 L910 43.1 L920 45.4 L930 47.8 L940 50.4 L950 53.2 L960 56.0 L970 58.9 L980 61.8 L990 64.7 L1000 67.7 L1010 70.5 L1020 73.3 L1030 75.9 L1040 78.4 L1050 80.8 L1060 83.0 L1070 84.9 L1080 86.7 L1090 88.3 L1100 89.6 L1110 90.8 L1120 91.7 L1130 92.3 L1140 92.8 L1150 93.1 L1160 93.2 L1170 93.1 L1180 92.8 L1190 92.4 L1200 91.9 L1210 91.3 L1220 90.6 L1230 89.9 L1240 89.1 L1250 88.4 L1260 87.6 L1270 86.9 L1280 86.2 L1290 85.6 L1300 85.1 L1310 84.7 L1320 84.3 L1330 84.1 L1340 84.0 L1350 83.9 L1360 84.0 L1370 84.2 L1380 84.4 L1390 84.8 L1400 85.1 L1410 85.6 L1420 86.0 L1430 86.4 L1440 86.9 L1450 87.2 L1460 87.6 L1470 87.8 L1480 87.9 L1490 87.9 L1500 87.8 L1510 87.5 L1520 87.0 L1530 86.4 L1540 85.6 L1550 84.5 L1560 83.3 L1570 81.8 L1580 80.2 L1590 78.3 L1600 76.3 " fill="none" stroke="#C6A75E" stroke-width="1.2" opacity="0.5"/>
  <path d="M0 97.1 L10 96.2 L20 95.2 L30 94.0 L40 92.6 L50 91.2 L60 89.6 L70 87.9 L80 86.2 L90 84.5 L100 82.7 L110 80.9 L120 79.1 L130 77.4 L140 75.8 L150 74.2 L160 72.7 L170 71.3 L180 70.0 L190 68.8 L200 67.8 L210 66.9 L220 66.1 L230 65.4 L240 64.9 L250 64.4 L260 64.1 L270 63.9 L280 63.7 L290 63.6 L300 63.6 L310 63.6 L320 63.7 L330 63.7 L340 63.8 L350 63.8 L360 63.8 L370 63.7 L380 63.6 L390 63.4 L400 63.1 L410 62.7 L420 62.3 L430 61.8 L440 61.1 L450 60.4 L460 59.6 L470 58.8 L480 57.8 L490 56.8 L500 55.8 L510 54.8 L520 53.7 L530 52.7 L540 51.6 L550 50.7 L560 49.8 L570 48.9 L580 48.2 L590 47.6 L600 47.1 L610 46.8 L620 46.7 L630 46.7 L640 46.9 L650 47.3 L660 47.9 L670 48.7 L680 49.7 L690 50.9 L700 52.2 L710 53.8 L720 55.5 L730 57.3 L740 59.3 L750 61.5 L760 63.7 L770 65.9 L780 68.3 L790 70.6 L800 73.0 L810 75.3 L820 77.6 L830 79.9 L840 82.0 L850 84.1 L860 86.0 L870 87.7 L880 89.3 L890 90.7 L900 92.0 L910 93.0 L920 93.8 L930 94.5 L940 94.9 L950 95.1 L960 95.1 L970 95.0 L980 94.6 L990 94.1 L1000 93.4 L1010 92.6 L1020 91.7 L1030 90.6 L1040 89.5 L1050 88.3 L1060 87.1 L1070 85.9 L1080 84.6 L1090 83.4 L1100 82.2 L1110 81.0 L1120 79.9 L1130 78.8 L1140 77.9 L1150 77.0 L1160 76.2 L1170 75.5 L1180 75.0 L1190 74.5 L1200 74.1 L1210 73.8 L1220 73.5 L1230 73.4 L1240 73.3 L1250 73.2 L1260 73.2 L1270 73.2 L1280 73.2 L1290 73.1 L1300 73.1 L1310 73.0 L1320 72.8 L1330 72.6 L1340 72.3 L1350 71.8 L1360 71.3 L1370 70.7 L1380 69.9 L1390 69.1 L1400 68.1 L1410 67.0 L1420 65.8 L1430 64.5 L1440 63.2 L1450 61.7 L1460 60.2 L1470 58.6 L1480 57.0 L1490 55.4 L1500 53.8 L1510 52.2 L1520 50.7 L1530 49.2 L1540 47.9 L1550 46.6 L1560 45.5 L1570 44.5 L1580 43.7 L1590 43.1 L1600 42.6 " fill="none" stroke="#C6A75E" stroke-width="1" opacity="0.35"/>
  <path d="M0 56.1 L10 53.9 L20 51.9 L30 50.2 L40 48.8 L50 47.6 L60 46.7 L70 46.0 L80 45.6 L90 45.5 L100 45.5 L110 45.7 L120 46.1 L130 46.6 L140 47.2 L150 47.9 L160 48.7 L170 49.5 L180 50.3 L190 51.1 L200 51.8 L210 52.5 L220 53.1 L230 53.6 L240 54.0 L250 54.3 L260 54.4 L270 54.5 L280 54.3 L290 54.1 L300 53.8 L310 53.3 L320 52.8 L330 52.2 L340 51.6 L350 50.9 L360 50.2 L370 49.6 L380 49.0 L390 48.5 L400 48.2 L410 47.9 L420 47.8 L430 47.9 L440 48.2 L450 48.7 L460 49.5 L470 50.4 L480 51.7 L490 53.2 L500 54.9 L510 57.0 L520 59.2 L530 61.7 L540 64.4 L550 67.3 L560 70.4 L570 73.6 L580 76.9 L590 80.3 L600 83.7 L610 87.2 L620 90.6 L630 94.0 L640 97.3 L650 100.4 L660 103.4 L670 106.2 L680 108.7 L690 111.0 L700 113.0 L710 114.7 L720 116.0 L730 117.0 L740 117.7 L750 118.0 L760 117.9 L770 117.5 L780 116.7 L790 115.7 L800 114.3 L810 112.6 L820 110.6 L830 108.4 L840 106.0 L850 103.4 L860 100.7 L870 97.8 L880 94.9 L890 91.9 L900 89.0 L910 86.0 L920 83.1 L930 80.3 L940 77.6 L950 75.1 L960 72.7 L970 70.5 L980 68.4 L990 66.6 L1000 65.0 L1010 63.6 L1020 62.5 L1030 61.5 L1040 60.7 L1050 60.1 L1060 59.7 L1070 59.4 L1080 59.3 L1090 59.2 L1100 59.3 L1110 59.4 L1120 59.5 L1130 59.7 L1140 59.8 L1150 59.9 L1160 59.9 L1170 59.9 L1180 59.7 L1190 59.5 L1200 59.1 L1210 58.6 L1220 57.9 L1230 57.1 L1240 56.2 L1250 55.1 L1260 53.9 L1270 52.6 L1280 51.2 L1290 49.8 L1300 48.3 L1310 46.7 L1320 45.2 L1330 43.7 L1340 42.3 L1350 40.9 L1360 39.7 L1370 38.6 L1380 37.7 L1390 37.0 L1400 36.5 L1410 36.3 L1420 36.3 L1430 36.7 L1440 37.3 L1450 38.2 L1460 39.4 L1470 41.0 L1480 42.8 L1490 45.0 L1500 47.4 L1510 50.1 L1520 53.0 L1530 56.1 L1540 59.5 L1550 62.9 L1560 66.6 L1570 70.3 L1580 74.0 L1590 77.8 L1600 81.5 " fill="none" stroke="#C6A75E" stroke-width="0.9" opacity="0.28"/>
  <path d="M0 56.7 L10 57.5 L20 58.3 L30 59.1 L40 59.9 L50 60.6 L60 61.3 L70 61.9 L80 62.5 L90 63.0 L100 63.4 L110 63.8 L120 64.1 L130 64.3 L140 64.5 L150 64.6 L160 64.7 L170 64.7 L180 64.8 L190 64.8 L200 64.7 L210 64.7 L220 64.8 L230 64.8 L240 64.9 L250 65.0 L260 65.1 L270 65.4 L280 65.7 L290 66.0 L300 66.5 L310 67.0 L320 67.7 L330 68.4 L340 69.2 L350 70.0 L360 71.0 L370 72.0 L380 73.1 L390 74.2 L400 75.3 L410 76.5 L420 77.7 L430 78.9 L440 80.0 L450 81.2 L460 82.2 L470 83.3 L480 84.2 L490 85.1 L500 85.8 L510 86.4 L520 87.0 L530 87.3 L540 87.6 L550 87.7 L560 87.6 L570 87.4 L580 87.0 L590 86.5 L600 85.8 L610 85.0 L620 84.1 L630 83.0 L640 81.8 L650 80.5 L660 79.1 L670 77.7 L680 76.2 L690 74.6 L700 73.1 L710 71.5 L720 69.9 L730 68.4 L740 66.9 L750 65.4 L760 64.0 L770 62.7 L780 61.5 L790 60.4 L800 59.3 L810 58.4 L820 57.7 L830 57.0 L840 56.5 L850 56.0 L860 55.7 L870 55.5 L880 55.5 L890 55.5 L900 55.6 L910 55.8 L920 56.0 L930 56.3 L940 56.7 L950 57.1 L960 57.5 L970 57.9 L980 58.3 L990 58.7 L1000 59.1 L1010 59.4 L1020 59.7 L1030 60.0 L1040 60.2 L1050 60.4 L1060 60.5 L1070 60.5 L1080 60.5 L1090 60.4 L1100 60.3 L1110 60.2 L1120 60.0 L1130 59.8 L1140 59.6 L1150 59.3 L1160 59.1 L1170 58.9 L1180 58.7 L1190 58.5 L1200 58.5 L1210 58.4 L1220 58.5 L1230 58.6 L1240 58.8 L1250 59.1 L1260 59.5 L1270 60.0 L1280 60.6 L1290 61.3 L1300 62.2 L1310 63.1 L1320 64.2 L1330 65.3 L1340 66.5 L1350 67.8 L1360 69.2 L1370 70.6 L1380 72.0 L1390 73.5 L1400 75.0 L1410 76.4 L1420 77.9 L1430 79.3 L1440 80.6 L1450 81.9 L1460 83.1 L1470 84.2 L1480 85.2 L1490 86.1 L1500 86.8 L1510 87.4 L1520 87.8 L1530 88.1 L1540 88.2 L1550 88.2 L1560 88.0 L1570 87.7 L1580 87.2 L1590 86.6 L1600 85.8 " fill="none" stroke="#C6A75E" stroke-width="0.8" opacity="0.4"/>
</svg>
